<svg width="24" height="20" viewBox="0 0 24 20" fill="none" xmlns="http://www.w3.org/2000/svg">
<path d="M8.25006 19.4668C9.07849 19.4668 9.75006 18.7952 9.75006 17.9668C9.75006 17.1384 9.07849 16.4668 8.25006 16.4668C7.42163 16.4668 6.75006 17.1384 6.75006 17.9668C6.75006 18.7952 7.42163 19.4668 8.25006 19.4668Z" fill="black"/>
<path d="M19.5001 19.4668C20.3285 19.4668 21.0001 18.7952 21.0001 17.9668C21.0001 17.1384 20.3285 16.4668 19.5001 16.4668C18.6716 16.4668 18.0001 17.1384 18.0001 17.9668C18.0001 18.7952 18.6716 19.4668 19.5001 19.4668Z" fill="black"/>
<path d="M23.1529 3.45462H4.81254L4.13449 0.552858C4.09583 0.394452 3.99191 0.252389 3.84083 0.151397C3.68974 0.0504054 3.50105 -0.00311905 3.3076 0.000140555H6.10352e-05V1.38193H2.62956L5.78826 14.6471C5.82692 14.8056 5.93084 14.9476 6.08192 15.0486C6.23301 15.1496 6.4217 15.2031 6.61515 15.1999H21.4991V13.8181H7.29319L6.61515 11.0545H21.4991C21.6902 11.0584 21.8771 11.0068 22.0279 10.9086C22.1786 10.8103 22.284 10.6714 22.326 10.5156L23.9797 4.29752C24.0075 4.195 24.0068 4.08856 23.9779 3.98629C23.9489 3.88402 23.8924 3.78861 23.8127 3.70733C23.7329 3.62605 23.6321 3.56104 23.5177 3.51725C23.4034 3.47346 23.2786 3.45204 23.1529 3.45462ZM20.8376 9.67269H6.30093L5.14329 4.83642H22.1193L20.8376 9.67269Z" fill="black"/>
</svg>
