<svg id="Layer_1" data-name="Layer 1" xmlns="http://www.w3.org/2000/svg" viewBox="0 0 150 94"><defs><style>.cls-1{fill:#fff;}.cls-2{fill:#105eab;}.cls-3{fill:#0033a0;}</style></defs><path class="cls-1" d="M2.15,4H143V90H2.15Z"/><path class="cls-2" d="M3.37,5.42h138V88.58H3.37Z"/><path class="cls-1" d="M60,88.58,141.37,6.23V5.42H141L58.81,88.58Zm-51.2,0L14.29,5.42h-.81L8,88.58Zm4.45,0L25.22,5.42h-.81L12.27,88.58Zm4.66,0L36.55,5.42h-.81L17.13,88.58Zm5.06,0L49.5,5.42h-.81L22.19,88.58Zm5.05,0,34-83.16H61L27,88.58Zm5.47,0L76.21,5.42h-1L32.51,88.58ZM97.46,5.42h-1L41.21,88.58h1Zm19.63,0h-1L48.9,88.58h1ZM141.37,37V36L75,88.58h1.42Zm0,22.87v-1L93.62,88.58h1.62Zm0,21.45v-.81l-17.6,8.09h2Z"/><path class="cls-1" d="M44.65,55.4C43,57,38.58,58.84,35.54,58.84,26.44,58.84,22.19,51,22,39.21,22,27.88,26.64,20.8,34.53,20.8a11.44,11.44,0,0,1,9.91,5.26l1.62,2.22V18l-.4-.2a26.08,26.08,0,0,0-11.13-2.23c-14.17,0-25.09,10.32-25.09,24.69C9.44,55,19.76,64.3,34.53,64.3h0c7.28,0,11.13-2.22,12.95-3.64l.61-.41-2.43-5.46-1,.61ZM84.51,20.8c-4.86-3.44-10.72-4.46-15.78-4.46H51.32V63.49H69.94c8.9,0,22.87-5.66,22.87-23.67C92.81,30.31,89.37,24.24,84.51,20.8Zm-21.65,37V21.4c8.5.2,17.4,1.22,17.6,18.42C80.26,56.41,71,57.62,62.86,57.83Zm69.61-3.24-1,.81c-1.62,1.62-6.07,3.44-9.11,3.44-9.11,0-13.56-7.89-13.56-19.63,0-11.33,4.66-18.41,12.55-18.41a11.45,11.45,0,0,1,9.91,5.26l1.62,2.22V18l-.2-.2a26.08,26.08,0,0,0-11.13-2.23c-14.16,0-25.09,10.32-25.09,24.69,0,14.77,10.32,24.08,25.09,24.08h.2c7.29,0,10.93-2.22,13-3.64l.61-.41-2.83-5.66Z"/><path class="cls-3" d="M143.8,86.36h1.62v.2h-.61v1.82h-.2V86.56H144v-.2Zm3.64,2V86.56l-.6,1.62h-.21l-.6-1.62h0v1.62h-.21v-2h.41l.61,1.82h0l.6-1.82h.41v2h-.41Z"/></svg>