<svg width="21" height="20" viewBox="0 0 21 20" fill="none" xmlns="http://www.w3.org/2000/svg">
<g clip-path="url(#clip0)">
<path d="M17.5898 4.1665H4.25651C3.33604 4.1665 2.58984 4.9127 2.58984 5.83317V14.1665C2.58984 15.087 3.33604 15.8332 4.25651 15.8332H17.5898C18.5103 15.8332 19.2565 15.087 19.2565 14.1665V5.83317C19.2565 4.9127 18.5103 4.1665 17.5898 4.1665Z" stroke="#636363" stroke-width="1.5" stroke-linecap="round" stroke-linejoin="bevel"/>
<path d="M3.42188 5L9.93021 11.5083C10.085 11.6633 10.2688 11.7862 10.4711 11.8701C10.6735 11.954 10.8903 11.9971 11.1094 11.9971C11.3284 11.9971 11.5453 11.954 11.7476 11.8701C11.9499 11.7862 12.1338 11.6633 12.2885 11.5083L18.7719 5" stroke="#636363" stroke-width="1.5" stroke-linecap="round" stroke-linejoin="round"/>
</g>
<defs>
<clipPath id="clip0">
<rect width="20" height="20" fill="white" transform="translate(0.921875)"/>
</clipPath>
</defs>
</svg>
