<svg id="Layer_1" data-name="Layer 1" xmlns="http://www.w3.org/2000/svg" viewBox="0 0 114 112"><defs><style>.cls-1{fill:#007cba;}.cls-2{fill:#fff;}</style></defs><polygon class="cls-1" points="13.26 3.64 13.26 108.36 100.74 108.36 100.74 3.64 13.26 3.64 13.26 3.64"/><path class="cls-2" d="M22,24V53.11h6.08v-12h8.2V35.86h-8.2V29.18H52.73a8.86,8.86,0,0,1,3.15.62,6.16,6.16,0,0,1,2.43,1.83,7.6,7.6,0,0,1,1.37,2.92,16,16,0,0,1,.43,3.86,14.25,14.25,0,0,1-.49,3.9,8.19,8.19,0,0,1-1.53,3,6.57,6.57,0,0,1-2.72,1.94,10.78,10.78,0,0,1-4,.67H47.41v-12H41.33v17.2h9.88a20.27,20.27,0,0,0,6.37-.94,12.15,12.15,0,0,0,7.78-7.43,18,18,0,0,0,1-6.37q0-7.14-3.74-10.78A13.8,13.8,0,0,0,53.32,24H22Zm54.28,0L65.33,53.11h6.53l2.33-6.74h7l-1.45-5h-4L79.33,30.9l7.39,22.21H93L82.07,24Z"/></svg>