<svg width="19" height="17" viewBox="0 0 19 17" fill="none" xmlns="http://www.w3.org/2000/svg">
<path d="M17.1016 1.53516C15.0625 -0.1875 11.9336 0.0585938 10 2.0625C8.03125 0.0585938 4.90234 -0.1875 2.86328 1.53516C0.226562 3.75 0.613281 7.37109 2.51172 9.30469L8.66406 15.5977C9.01562 15.9492 9.47266 16.1602 10 16.1602C10.4922 16.1602 10.9492 15.9492 11.3008 15.5977L17.4883 9.30469C19.3516 7.37109 19.7383 3.75 17.1016 1.53516ZM16.2578 8.10938L10.1055 14.4023C10.0352 14.4727 9.96484 14.4727 9.85938 14.4023L3.70703 8.10938C2.40625 6.80859 2.16016 4.34766 3.95312 2.83594C5.32422 1.67578 7.43359 1.85156 8.76953 3.1875L10 4.45312L11.2305 3.1875C12.5312 1.85156 14.6406 1.67578 16.0117 2.80078C17.8047 4.34766 17.5586 6.80859 16.2578 8.10938Z" fill="#636363"/>
</svg>
