<svg width="21" height="20" viewBox="0 0 21 20" fill="none" xmlns="http://www.w3.org/2000/svg">
<path d="M14.2565 10.9419H7.58984" stroke="#636363" stroke-width="1.5" stroke-linecap="round" stroke-linejoin="bevel"/>
<path d="M10.9219 14.2751V7.6084" stroke="#636363" stroke-width="1.5" stroke-linecap="round" stroke-linejoin="bevel"/>
<path fill-rule="evenodd" clip-rule="evenodd" d="M13.3039 1.6665H5.92057C5.47855 1.6665 5.05462 1.8421 4.74206 2.15466C4.4295 2.46722 4.25391 2.89114 4.25391 3.33317V16.6665C4.25391 17.1085 4.4295 17.5325 4.74206 17.845C5.05462 18.1576 5.47855 18.3332 5.92057 18.3332H15.9206C16.3626 18.3332 16.7865 18.1576 17.0991 17.845C17.4116 17.5325 17.5872 17.1085 17.5872 16.6665V7.43317C17.5903 7.26273 17.5376 7.09597 17.4372 6.95817L13.9789 2.02484C13.9031 1.9156 13.8023 1.82607 13.6849 1.76373C13.5675 1.7014 13.4368 1.66806 13.3039 1.6665V1.6665Z" stroke="#636363" stroke-width="1.5" stroke-linecap="round" stroke-linejoin="bevel"/>
</svg>
