<svg width="40" height="41" viewBox="0 0 40 41" fill="none" xmlns="http://www.w3.org/2000/svg">
<path d="M33.332 11.124H6.66536C4.82442 11.124 3.33203 12.6164 3.33203 14.4574V27.2407C3.33203 29.0816 4.82442 30.574 6.66536 30.574H33.332C35.173 30.574 36.6654 29.0816 36.6654 27.2407V14.4574C36.6654 12.6164 35.173 11.124 33.332 11.124Z" stroke="#151515" stroke-width="2.5" stroke-linecap="round" stroke-linejoin="round"/>
<path d="M9.9987 11.9409C9.9987 13.709 9.29632 15.4047 8.04608 16.655C6.79583 17.9052 5.10014 18.6076 3.33203 18.6076V18.6076" stroke="#151515" stroke-width="2.5" stroke-linecap="round" stroke-linejoin="round"/>
<path d="M3.33203 22.9741C5.10014 22.9741 6.79583 23.6765 8.04608 24.9267C9.29632 26.177 9.9987 27.8727 9.9987 29.6408" stroke="#151515" stroke-width="2.5" stroke-linecap="round" stroke-linejoin="round"/>
<path d="M30 29.6408C30 27.8727 30.7024 26.177 31.9526 24.9267C33.2029 23.6765 34.8986 22.9741 36.6667 22.9741" stroke="#151515" stroke-width="2.5" stroke-linecap="round" stroke-linejoin="round"/>
<path d="M36.6667 18.6076C34.8986 18.6076 33.2029 17.9052 31.9526 16.655C30.7024 15.4047 30 13.709 30 11.9409V11.9409" stroke="#151515" stroke-width="2.5" stroke-linecap="round" stroke-linejoin="round"/>
<path d="M19.9974 24.1906C21.8383 24.1906 23.3307 22.6982 23.3307 20.8573C23.3307 19.0163 21.8383 17.5239 19.9974 17.5239C18.1564 17.5239 16.6641 19.0163 16.6641 20.8573C16.6641 22.6982 18.1564 24.1906 19.9974 24.1906Z" stroke="#151515" stroke-width="2.5" stroke-linecap="round" stroke-linejoin="round"/>
</svg>
