<svg width="46" height="26" viewBox="0 0 46 26" fill="none" xmlns="http://www.w3.org/2000/svg">
<path d="M9.57302 22.7095C8.93993 22.7095 8.32882 22.7104 7.71771 22.7095C7.18774 22.7078 6.86655 22.4104 6.86401 21.9224C6.86147 21.4463 7.19281 21.1284 7.71433 21.1224C8.32544 21.1164 8.93655 21.1207 9.54513 21.1207C10.185 18.9866 11.5475 17.7926 13.7933 17.8524C15.3536 17.8943 17.0036 19.0054 17.5107 21.1207C17.6028 21.1207 17.7043 21.1207 17.8057 21.1207C23.3175 21.1207 28.8302 21.1198 34.3421 21.1207C34.5339 21.1207 34.7283 21.1446 34.9177 21.1233C34.9921 21.1147 35.1036 21.025 35.1188 20.954C35.4848 19.2293 37.0722 17.8986 38.8624 17.8396C40.7194 17.7781 42.3119 18.9199 42.8824 20.7045C42.9247 20.8369 42.9576 20.9728 42.9957 21.1113C43.3735 21.1113 43.7386 21.1113 44.1317 21.1113C44.1317 18.9233 44.1317 16.7414 44.1317 14.521C43.7327 14.521 43.3431 14.521 42.9543 14.521C41.2164 14.5218 39.4795 14.5269 37.7416 14.5218C37.1483 14.5201 36.8583 14.203 36.8583 13.5851C36.8575 11.0331 36.8575 8.48016 36.8575 5.92813C36.8575 5.82471 36.8575 5.72044 36.8575 5.59823C35.6311 5.59823 34.4308 5.59823 33.217 5.59823C33.217 5.92642 33.217 6.24179 33.217 6.55716C33.2179 9.56046 33.2187 12.5638 33.2179 15.5671C33.2179 16.1431 32.9018 16.4568 32.316 16.4559C28.2631 16.4542 24.211 16.4474 20.158 16.4474C16.0704 16.4474 11.982 16.4534 7.89436 16.4534C7.72193 16.4534 7.54021 16.4525 7.37961 16.4004C7.00179 16.2781 6.81752 15.9406 6.86739 15.526C6.90965 15.179 7.21394 14.9004 7.58669 14.8714C7.6653 14.8654 7.74391 14.8671 7.82252 14.8671C12.435 14.8697 17.0467 14.8739 21.6592 14.8748C24.8643 14.8756 28.0695 14.8714 31.2747 14.8697C31.3871 14.8697 31.4995 14.8697 31.6364 14.8697C31.6364 10.7279 31.6364 6.60844 31.6364 2.45732C31.4708 2.45732 31.3178 2.45732 31.1648 2.45732C26.0282 2.45732 20.8917 2.45818 15.7551 2.45732C15.5895 2.45732 15.423 2.44707 15.2573 2.44621C14.6994 2.44279 14.347 2.12999 14.3529 1.64197C14.3588 1.16934 14.7129 0.859096 15.248 0.859096C20.8122 0.859096 26.3765 0.859096 31.9407 0.859096C32.1157 0.859096 32.2906 0.853968 32.4648 0.86166C32.8663 0.878754 33.1815 1.1796 33.1891 1.583C33.2027 2.28895 33.1968 2.99491 33.2001 3.70087C33.201 3.79573 33.2086 3.8906 33.2137 4.0094C33.7842 4.0094 34.3328 4.00513 34.8813 4.01025C35.8762 4.01966 36.8753 3.97949 37.865 4.05726C40.0661 4.23076 41.9205 5.18371 43.4132 6.81784C44.9592 8.51008 45.7199 10.5245 45.7165 12.833C45.7123 15.8354 45.7165 18.8379 45.7157 21.8412C45.7157 22.3993 45.4105 22.7044 44.856 22.7061C44.2449 22.7078 43.6338 22.7061 42.9999 22.7061C42.9551 22.8702 42.9179 23.03 42.868 23.1864C42.3102 24.9257 40.6907 26.0521 38.8337 25.9957C37.1187 25.9427 35.566 24.6727 35.1349 22.9557C35.0884 22.7702 35.0259 22.7018 34.8255 22.7018C29.1303 22.7078 23.4359 22.7078 17.7406 22.7018C17.5462 22.7018 17.482 22.7617 17.4313 22.9522C16.996 24.5983 15.6562 25.7983 13.9962 25.9761C11.9608 26.194 10.1647 24.9205 9.64317 22.9856C9.62289 22.9035 9.60176 22.8189 9.57302 22.7095ZM38.4415 5.73412C38.4415 8.15539 38.4415 10.5331 38.4415 12.9159C38.4981 12.9253 38.5311 12.9364 38.5649 12.9364C40.3627 12.9381 42.1606 12.9373 43.9584 12.9415C44.1114 12.9415 44.1655 12.8826 44.1486 12.7381C44.0818 12.1706 44.0725 11.5886 43.9364 11.039C43.4344 9.00749 42.2476 7.48619 40.4464 6.46144C39.8311 6.11017 39.1693 5.87086 38.4415 5.73412ZM13.5262 24.4043C15.0434 24.4129 15.9529 23.2343 15.991 22.0754C16.0408 20.5532 14.9648 19.4285 13.5406 19.425C12.1975 19.4216 11.0835 20.5335 11.0733 21.8865C11.0623 23.2847 12.1502 24.4009 13.5262 24.4043ZM39.0137 24.4043C40.3856 24.4095 41.4801 23.3223 41.4987 21.936C41.5165 20.566 40.394 19.4267 39.023 19.4242C37.6689 19.4216 36.5777 20.537 36.576 21.9258C36.5743 23.3035 37.6529 24.3992 39.0137 24.4043Z" fill="black"/>
<path d="M8.01045 7.71776C10.3893 7.71776 12.7691 7.71653 15.148 7.71898C15.6309 7.71898 15.9983 8.21406 16 8.84972C16.0009 9.42914 15.672 9.94501 15.2661 9.99635C15.213 10.0025 15.1599 10 15.1068 10C10.3671 10 5.62643 10.0012 0.886654 10C0.396834 10 0.0465955 9.59906 0.00463541 9.0013C-0.0441753 8.29963 0.2975 7.73365 0.793314 7.72142C1.27971 7.7092 1.7661 7.71776 2.2525 7.71776C4.17239 7.71776 6.09142 7.71776 8.01045 7.71776Z" fill="black"/>
<path d="M7.99962 11.1444C9.64336 11.1444 11.2863 11.1419 12.93 11.1456C13.286 11.1468 13.5867 11.4809 13.6814 11.9551C13.7754 12.4255 13.6625 12.9488 13.3667 13.2178C13.2291 13.3431 13.0495 13.4229 12.888 13.4229C10.1896 13.4291 7.49043 13.4168 4.79206 13.4131C4.22273 13.4119 3.65257 13.4352 3.08323 13.4278C2.67621 13.4229 2.39772 13.0974 2.31203 12.5729C2.22387 12.0288 2.35405 11.5313 2.68115 11.2844C2.8031 11.191 2.95635 11.153 3.09641 11.1517C4.73109 11.1431 6.36577 11.1456 8.00045 11.1456C7.99962 11.1468 7.99962 11.1456 7.99962 11.1444Z" fill="black"/>
<path d="M12.5765 4.28703C14.1246 4.28703 15.6728 4.28703 17.2209 4.28703C17.3313 4.28703 17.4426 4.28518 17.553 4.2895C17.9765 4.30677 18.2681 4.52513 18.2871 4.83786C18.306 5.13641 18.0127 5.38807 17.5983 5.42015C17.4467 5.43187 17.2926 5.42878 17.1394 5.42817C15.6579 5.42446 14.1774 5.41706 12.6959 5.41768C11.0456 5.41768 9.3953 5.42446 7.74499 5.42878C7.10397 5.43063 6.72332 5.08644 6.90458 4.66638C6.99769 4.45049 7.2012 4.32898 7.49534 4.29752C7.62881 4.28333 7.76723 4.28642 7.90318 4.28642C9.38377 4.2895 10.8652 4.2932 12.3458 4.29629C12.4224 4.29629 12.4982 4.29629 12.5748 4.29629C12.5765 4.29382 12.5765 4.29012 12.5765 4.28703Z" fill="black"/>
</svg>
