<svg width="29" height="31" viewBox="0 0 29 31" fill="none" xmlns="http://www.w3.org/2000/svg">
<path d="M0.325677 12.0636C1.72807 4.30412 9.36133 -0.898302 16.9338 0.726282C26.5416 2.78793 31.2145 13.6889 26.1477 22.2343C26.0268 22.4386 26.0487 22.5762 26.1518 22.7645C26.8004 23.9465 27.447 25.1298 28.0765 26.3229C28.2472 26.646 28.3947 26.9941 28.4814 27.3485C28.6876 28.19 28.5592 28.98 27.8928 29.5734C27.2346 30.1592 26.4686 30.2864 25.6302 29.9862C23.7758 29.3212 21.9187 28.6646 20.0568 28.0218C19.884 27.9621 19.6485 27.9662 19.4798 28.0357C17.138 28.9988 14.7155 29.3087 12.2166 28.9647C5.29003 28.0107 0.0792002 21.9286 0 14.7826C0.105828 13.8758 0.163863 12.96 0.325677 12.0636ZM13.4456 27.3325C15.4836 27.4499 17.4329 27.0831 19.2832 26.2068C19.5631 26.0741 19.7973 26.0706 20.0882 26.1756C22.0914 26.8982 24.0994 27.607 26.1129 28.2991C26.302 28.3644 26.6195 28.3685 26.7294 28.2539C26.8441 28.1344 26.8134 27.8321 26.782 27.6195C26.756 27.4444 26.6434 27.2804 26.5567 27.1185C25.7749 25.6676 25 24.2126 24.1977 22.7735C24.0325 22.4761 24.055 22.2864 24.2428 22.012C27.4381 17.3335 27.2913 11.1964 23.7355 6.87372C20.3708 2.78377 16.0012 1.2648 10.9412 2.65939C5.84443 4.063 2.87374 7.64779 1.90627 12.9343C1.86462 13.1615 1.84414 13.3936 1.82775 13.6243C1.79976 14.0051 1.78269 14.3866 1.76084 14.768C1.76972 21.429 6.90408 26.9545 13.4456 27.3325Z" fill="black"/>
<path d="M20.0919 17.1569C20.0256 17.1681 19.9719 17.1793 19.9174 17.1864C19.0578 17.2979 18.6517 16.9156 18.6852 16.0803C18.7229 15.1469 18.7012 14.2106 18.6908 13.2757C18.6859 12.871 18.7236 12.4993 19.1199 12.2777C19.4436 12.0967 19.9551 12.1458 20.341 12.3899C20.1023 10.2508 17.8848 7.31498 14.3995 6.97693C10.4432 6.5933 7.56981 9.50808 7.06323 12.3078C7.36606 12.2679 7.68494 12.1851 8.00103 12.1949C8.41759 12.2082 8.71624 12.5337 8.72112 12.9545C8.73368 14.1117 8.73717 15.2689 8.72042 16.4254C8.71344 16.9177 8.34712 17.1976 7.78891 17.1983C7.2286 17.199 6.87972 16.922 6.84414 16.4352C6.83018 16.2501 6.84204 16.0621 6.84204 15.8545C6.74366 15.8286 6.65714 15.8068 6.57131 15.7837C6.12684 15.6609 5.84215 15.3699 5.74516 14.9231C5.65026 14.489 5.77795 14.1019 6.13102 13.8297C6.30058 13.6986 6.34872 13.5618 6.35361 13.3605C6.44292 9.52841 9.35329 6.45023 13.1519 6.16408C17.1899 5.8597 20.6871 8.82146 21.0597 12.8605C21.068 12.9538 21.0764 13.0477 21.0708 13.1403C21.0499 13.4538 21.1176 13.6888 21.3841 13.923C21.8754 14.3543 21.7972 15.1237 21.2962 15.5642C21.1839 15.6623 21.0694 15.8033 21.0387 15.9429C20.4177 18.7426 18.6803 20.4995 16.0253 21.4161C15.876 21.4673 15.7274 21.5824 15.629 21.7079C15.2075 22.2451 14.2572 22.297 13.7946 21.7928C13.482 21.4519 13.5273 20.9862 13.902 20.6889C14.3779 20.3122 15.1238 20.3655 15.5669 20.7941C15.6401 20.8649 15.7881 20.9329 15.8711 20.9063C17.7837 20.2961 19.2092 19.108 20.08 17.2747C20.0905 17.2481 20.0856 17.2109 20.0919 17.1569Z" fill="black"/>
</svg>
