<svg width="23" height="19" viewBox="0 0 23 19" fill="none" xmlns="http://www.w3.org/2000/svg">
<path d="M7.90625 19.0001C8.70016 19.0001 9.34375 18.433 9.34375 17.7335C9.34375 17.0339 8.70016 16.4668 7.90625 16.4668C7.11234 16.4668 6.46875 17.0339 6.46875 17.7335C6.46875 18.433 7.11234 19.0001 7.90625 19.0001Z" fill="#636363"/>
<path d="M18.6875 19.0001C19.4814 19.0001 20.125 18.433 20.125 17.7335C20.125 17.0339 19.4814 16.4668 18.6875 16.4668C17.8936 16.4668 17.25 17.0339 17.25 17.7335C17.25 18.433 17.8936 19.0001 18.6875 19.0001Z" fill="#636363"/>
<path d="M22.1881 3.45462H4.61196L3.96216 0.552858C3.92511 0.394452 3.82553 0.252389 3.68073 0.151397C3.53594 0.0504054 3.35511 -0.00311905 3.16973 0.000140555H0V1.38193H2.51993L5.54702 14.6471C5.58407 14.8056 5.68366 14.9476 5.82845 15.0486C5.97324 15.1496 6.15407 15.2031 6.33946 15.1999H20.6032V13.8181H6.98925L6.33946 11.0545H20.6032C20.7864 11.0584 20.9655 11.0068 21.11 10.9086C21.2544 10.8103 21.3554 10.6714 21.3957 10.5156L22.9805 4.29752C23.0071 4.195 23.0065 4.08856 22.9787 3.98629C22.951 3.88402 22.8968 3.78861 22.8204 3.70733C22.744 3.62605 22.6473 3.56104 22.5378 3.51725C22.4282 3.47346 22.3086 3.45204 22.1881 3.45462ZM19.9693 9.67269H6.03833L4.92893 4.83642H21.1976L19.9693 9.67269Z" fill="#636363"/>
</svg>
