<svg width="34" height="34" viewBox="0 0 34 34" fill="none" xmlns="http://www.w3.org/2000/svg">
<circle cx="17.0007" cy="17.0007" r="14.1667" fill="#C13584"/>
<path d="M17 10.0315C19.2696 10.0315 19.5384 10.0402 20.4347 10.0811C21.2635 10.1189 21.7135 10.2573 22.0131 10.3738C22.4098 10.5279 22.693 10.7121 22.9904 11.0096C23.2879 11.307 23.472 11.5902 23.6262 11.9869C23.7426 12.2864 23.8811 12.7365 23.9189 13.5653C23.9598 14.4615 23.9685 14.7304 23.9685 17C23.9685 19.2696 23.9598 19.5384 23.9189 20.4347C23.8811 21.2634 23.7426 21.7135 23.6262 22.013C23.472 22.4098 23.2879 22.6929 22.9904 22.9903C22.693 23.2878 22.4098 23.472 22.0131 23.6262C21.7135 23.7426 21.2635 23.8811 20.4347 23.9189C19.5386 23.9597 19.2698 23.9684 17 23.9684C14.7302 23.9684 14.4615 23.9597 13.5653 23.9189C12.7365 23.8811 12.2865 23.7426 11.9869 23.6262C11.5902 23.472 11.307 23.2878 11.0096 22.9903C10.7122 22.6929 10.528 22.4098 10.3738 22.013C10.2574 21.7135 10.1189 21.2634 10.0811 20.4347C10.0402 19.5384 10.0315 19.2696 10.0315 17C10.0315 14.7304 10.0402 14.4615 10.0811 13.5653C10.1189 12.7365 10.2574 12.2864 10.3738 11.9869C10.528 11.5902 10.7121 11.307 11.0096 11.0096C11.307 10.7121 11.5902 10.5279 11.9869 10.3738C12.2865 10.2573 12.7365 10.1189 13.5653 10.0811C14.4616 10.0402 14.7304 10.0315 17 10.0315ZM17 8.5C14.6915 8.5 14.4021 8.50978 13.4955 8.55115C12.5907 8.59242 11.9728 8.73612 11.4322 8.94622C10.8732 9.16344 10.3992 9.45409 9.92663 9.92662C9.45409 10.3992 9.16345 10.8732 8.94626 11.4322C8.73612 11.9728 8.59242 12.5907 8.55115 13.4954C8.50978 14.4021 8.5 14.6915 8.5 17C8.5 19.3084 8.50978 19.5979 8.55115 20.5045C8.59242 21.4092 8.73612 22.0271 8.94626 22.5678C9.16345 23.1267 9.45409 23.6007 9.92663 24.0733C10.3992 24.5459 10.8732 24.8365 11.4322 25.0537C11.9728 25.2638 12.5907 25.4075 13.4955 25.4488C14.4021 25.4902 14.6915 25.4999 17 25.4999C19.3085 25.4999 19.5979 25.4902 20.5045 25.4488C21.4093 25.4075 22.0272 25.2638 22.5678 25.0537C23.1268 24.8365 23.6008 24.5459 24.0734 24.0733C24.5459 23.6007 24.8366 23.1267 25.0538 22.5678C25.2639 22.0271 25.4076 21.4092 25.4488 20.5045C25.4902 19.5979 25.5 19.3084 25.5 17C25.5 14.6915 25.4902 14.4021 25.4488 13.4954C25.4076 12.5907 25.2639 11.9728 25.0538 11.4322C24.8366 10.8732 24.5459 10.3992 24.0734 9.92662C23.6008 9.45409 23.1268 9.16344 22.5678 8.94622C22.0272 8.73612 21.4093 8.59242 20.5045 8.55115C19.5979 8.50978 19.3085 8.5 17 8.5Z" fill="white"/>
<path d="M17.0036 12.6387C14.5929 12.6387 12.6387 14.5929 12.6387 17.0035C12.6387 19.4142 14.5929 21.3684 17.0036 21.3684C19.4142 21.3684 21.3684 19.4142 21.3684 17.0035C21.3684 14.5929 19.4142 12.6387 17.0036 12.6387ZM17.0036 19.8368C15.4387 19.8368 14.1702 18.5683 14.1702 17.0035C14.1702 15.4387 15.4387 14.1702 17.0036 14.1702C18.5683 14.1702 19.8369 15.4387 19.8369 17.0035C19.8369 18.5683 18.5683 19.8368 17.0036 19.8368Z" fill="white"/>
<path d="M22.5615 12.4634C22.5615 13.0267 22.1048 13.4834 21.5415 13.4834C20.9782 13.4834 20.5215 13.0267 20.5215 12.4634C20.5215 11.9 20.9782 11.4434 21.5415 11.4434C22.1048 11.4434 22.5615 11.9 22.5615 12.4634Z" fill="white"/>
</svg>
