<svg width="34" height="34" viewBox="0 0 34 34" fill="none" xmlns="http://www.w3.org/2000/svg">
<circle cx="17.0007" cy="17.0007" r="14.1667" fill="#0077B5"/>
<path fill-rule="evenodd" clip-rule="evenodd" d="M13.2981 10.1178C13.2981 10.9997 12.6266 11.7134 11.5765 11.7134C10.5672 11.7134 9.8957 10.9997 9.91648 10.1178C9.8957 9.19295 10.5672 8.5 11.5966 8.5C12.6266 8.5 13.278 9.19295 13.2981 10.1178ZM10.0009 23.2468V12.974H13.1936V23.2462H10.0009V23.2468Z" fill="white"/>
<path fill-rule="evenodd" clip-rule="evenodd" d="M15.7524 16.2518C15.7524 14.9704 15.7102 13.8781 15.668 12.9747H18.4411L18.5885 14.382H18.6515C19.0717 13.7306 20.1218 12.7441 21.8234 12.7441C23.9237 12.7441 25.4992 14.1307 25.4992 17.1545V23.2475H22.3066V17.5545C22.3066 16.2303 21.8448 15.3276 20.6894 15.3276C19.8069 15.3276 19.2821 15.9368 19.0723 16.5245C18.9879 16.7349 18.9464 17.0285 18.9464 17.3233V23.2475H15.7537V16.2518H15.7524Z" fill="white"/>
</svg>
