<svg width="271" height="82" viewBox="0 0 271 82" fill="none" xmlns="http://www.w3.org/2000/svg">
<rect x="1.76777" width="25.3821" height="25.3839" transform="matrix(0.707107 -0.707106 0.707107 0.707106 24.0842 33.4648)" fill="#FF8B00" stroke="white" stroke-width="2.5"/>
<rect x="1.76777" width="25.3821" height="25.3839" transform="matrix(0.707107 -0.707106 0.707107 0.707106 24.0842 57.0312)" fill="#636363" stroke="white" stroke-width="2.5"/>
<rect x="1.76777" width="25.3821" height="25.3839" transform="matrix(0.707107 -0.707106 0.707107 0.707106 0.517767 57.0312)" fill="#54B4D7" stroke="white" stroke-width="2.5"/>
<path d="M78.97 18.295H85.295V53H78.97V18.295ZM104.306 18.295H110.081V53H104.141L96.7161 30.01V53H90.8861V18.295H96.9911L104.306 40.955V18.295ZM121.207 18.295H127.917C131.914 18.295 133.912 20.11 133.912 23.74V47.555C133.912 51.185 131.914 53 127.917 53H121.207C117.21 53 115.212 51.185 115.212 47.555V23.74C115.212 20.11 117.21 18.295 121.207 18.295ZM127.587 46.675V24.62C127.587 24.0333 127.477 23.6483 127.257 23.465C127.037 23.245 126.634 23.135 126.047 23.135H123.132C122.509 23.135 122.087 23.245 121.867 23.465C121.647 23.6483 121.537 24.0333 121.537 24.62V46.675C121.537 47.2617 121.647 47.665 121.867 47.885C122.087 48.0683 122.509 48.16 123.132 48.16H126.047C126.634 48.16 127.037 48.0683 127.257 47.885C127.477 47.665 127.587 47.2617 127.587 46.675ZM152.266 18.295H158.756L151.881 53H143.576L136.701 18.295H143.246L147.701 46.345L152.266 18.295ZM175.976 53L174.656 45.795H167.066L165.856 53H159.531L166.516 18.295H175.041L182.356 53H175.976ZM167.891 41.01H173.776L170.751 24.4L167.891 41.01ZM201.532 18.295V23.135H195.427V53H189.102V23.135H183.052V18.295H201.532ZM204.761 18.295H211.086V53H204.761V18.295ZM222.452 53C218.455 53 216.457 51.185 216.457 47.555V23.74C216.457 20.11 218.455 18.295 222.452 18.295H229.162C233.159 18.295 235.157 20.11 235.157 23.74V47.555C235.157 50.0483 234.24 51.68 232.407 52.45L236.642 57.62H229.712L226.027 53H222.452ZM222.782 24.62V46.675C222.782 47.2617 222.892 47.665 223.112 47.885C223.332 48.0683 223.754 48.16 224.377 48.16H227.292C227.879 48.16 228.282 48.0683 228.502 47.885C228.722 47.665 228.832 47.2617 228.832 46.675V24.62C228.832 24.0333 228.722 23.6483 228.502 23.465C228.282 23.245 227.879 23.135 227.292 23.135H224.377C223.754 23.135 223.332 23.245 223.112 23.465C222.892 23.6483 222.782 24.0333 222.782 24.62ZM254.501 53L253.181 45.795H245.591L244.381 53H238.056L245.041 18.295H253.566L260.881 53H254.501ZM246.416 41.01H252.301L249.276 24.4L246.416 41.01Z" fill="black"/>
<path d="M78.9368 62.428H81.8168C82.6888 62.428 83.1248 62.824 83.1248 63.616V68.812C83.1248 69.604 82.6888 70 81.8168 70H78.9368V62.428ZM81.7328 68.668V63.76C81.7328 63.632 81.7088 63.548 81.6608 63.508C81.6128 63.46 81.5248 63.436 81.3968 63.436H80.3168V68.992H81.3968C81.5248 68.992 81.6128 68.972 81.6608 68.932C81.7088 68.884 81.7328 68.796 81.7328 68.668ZM84.4242 62.428H85.8043V70H84.4242V62.428ZM89.5441 68.62V67C89.5441 66.872 89.5201 66.788 89.4721 66.748C89.4241 66.7 89.3361 66.676 89.2081 66.676H88.2361C87.4121 66.676 87.0001 66.276 87.0001 65.476V63.616C87.0001 62.824 87.4321 62.428 88.2961 62.428H89.6161C90.4801 62.428 90.9121 62.824 90.9121 63.616V64.672H89.5201V63.808C89.5201 63.68 89.4961 63.596 89.4481 63.556C89.4001 63.508 89.3121 63.484 89.1841 63.484H88.7281C88.5921 63.484 88.5001 63.508 88.4521 63.556C88.4041 63.596 88.3801 63.68 88.3801 63.808V65.332C88.3801 65.46 88.4041 65.548 88.4521 65.596C88.5001 65.636 88.5921 65.656 88.7281 65.656H89.6761C90.5161 65.656 90.9361 66.048 90.9361 66.832V68.812C90.9361 69.604 90.5001 70 89.6281 70H88.3321C87.4601 70 87.0241 69.604 87.0241 68.812V67.768H88.4041V68.62C88.4041 68.748 88.4281 68.836 88.4761 68.884C88.5241 68.924 88.6161 68.944 88.7521 68.944H89.2081C89.3361 68.944 89.4241 68.924 89.4721 68.884C89.5201 68.836 89.5441 68.748 89.5441 68.62ZM92.0571 62.428H94.8411C95.7131 62.428 96.1491 62.824 96.1491 63.616V66.028C96.1491 66.82 95.7131 67.216 94.8411 67.216H93.4371V70H92.0571V62.428ZM94.7691 65.836V63.808C94.7691 63.68 94.7451 63.596 94.6971 63.556C94.6491 63.508 94.5611 63.484 94.4331 63.484H93.4371V66.16H94.4331C94.5611 66.16 94.6491 66.14 94.6971 66.1C94.7451 66.052 94.7691 65.964 94.7691 65.836ZM98.5496 68.944H100.854V70H97.1576V62.428H100.758V63.484H98.5496V65.584H100.41V66.652H98.5496V68.944ZM104.694 62.428H105.954V70H104.658L103.038 64.984V70H101.766V62.428H103.098L104.694 67.372V62.428ZM109.641 68.62V67C109.641 66.872 109.617 66.788 109.569 66.748C109.521 66.7 109.433 66.676 109.305 66.676H108.333C107.509 66.676 107.097 66.276 107.097 65.476V63.616C107.097 62.824 107.529 62.428 108.393 62.428H109.713C110.577 62.428 111.009 62.824 111.009 63.616V64.672H109.617V63.808C109.617 63.68 109.593 63.596 109.545 63.556C109.497 63.508 109.409 63.484 109.281 63.484H108.825C108.689 63.484 108.597 63.508 108.549 63.556C108.501 63.596 108.477 63.68 108.477 63.808V65.332C108.477 65.46 108.501 65.548 108.549 65.596C108.597 65.636 108.689 65.656 108.825 65.656H109.773C110.613 65.656 111.033 66.048 111.033 66.832V68.812C111.033 69.604 110.597 70 109.725 70H108.429C107.557 70 107.121 69.604 107.121 68.812V67.768H108.501V68.62C108.501 68.748 108.525 68.836 108.573 68.884C108.621 68.924 108.713 68.944 108.849 68.944H109.305C109.433 68.944 109.521 68.924 109.569 68.884C109.617 68.836 109.641 68.748 109.641 68.62ZM112.226 62.428H113.606V70H112.226V62.428ZM117.874 62.428H119.134V70H117.838L116.218 64.984V70H114.946V62.428H116.278L117.874 67.372V62.428ZM124.382 64.756H122.99V63.76C122.99 63.632 122.966 63.548 122.918 63.508C122.87 63.46 122.782 63.436 122.654 63.436H122.09C121.962 63.436 121.874 63.46 121.826 63.508C121.778 63.548 121.754 63.632 121.754 63.76V68.68C121.754 68.808 121.778 68.896 121.826 68.944C121.874 68.984 121.962 69.004 122.09 69.004H122.654C122.782 69.004 122.87 68.984 122.918 68.944C122.966 68.896 122.99 68.808 122.99 68.68V67H122.39V66.028H124.382V68.824C124.382 69.616 123.946 70.012 123.074 70.012H121.67C120.798 70.012 120.362 69.616 120.362 68.824V63.616C120.362 62.824 120.798 62.428 121.67 62.428H123.074C123.946 62.428 124.382 62.824 124.382 63.616V64.756ZM130.527 62.428H131.907V70H130.527V66.772H128.967V70H127.587V62.428H128.967V65.716H130.527V62.428ZM134.572 68.944H136.876V70H133.18V62.428H136.78V63.484H134.572V65.584H136.432V66.652H134.572V68.944ZM140.896 70L140.608 68.428H138.952L138.688 70H137.308L138.832 62.428H140.692L142.288 70H140.896ZM139.132 67.384H140.416L139.756 63.76L139.132 67.384ZM144.456 68.944H146.472V70H143.076V62.428H144.456V68.944ZM150.72 62.428V63.484H149.388V70H148.008V63.484H146.688V62.428H150.72ZM154.413 62.428H155.793V70H154.413V66.772H152.853V70H151.473V62.428H152.853V65.716H154.413V62.428ZM161.025 64.936H159.633V63.76C159.633 63.632 159.609 63.548 159.561 63.508C159.513 63.46 159.425 63.436 159.297 63.436H158.733C158.605 63.436 158.517 63.46 158.469 63.508C158.421 63.548 158.397 63.632 158.397 63.76V68.68C158.397 68.808 158.421 68.896 158.469 68.944C158.517 68.984 158.605 69.004 158.733 69.004H159.297C159.425 69.004 159.513 68.984 159.561 68.944C159.609 68.896 159.633 68.808 159.633 68.68V67.528H161.025V68.824C161.025 69.616 160.589 70.012 159.717 70.012H158.313C157.441 70.012 157.005 69.616 157.005 68.824V63.616C157.005 62.824 157.441 62.428 158.313 62.428H159.717C160.589 62.428 161.025 62.824 161.025 63.616V64.936ZM165.227 70L164.939 68.428H163.283L163.019 70H161.639L163.163 62.428H165.023L166.619 70H165.227ZM163.463 67.384H164.747L164.087 63.76L163.463 67.384ZM168.787 67.048V70H167.407V62.428H170.191C171.063 62.428 171.499 62.824 171.499 63.616V65.86C171.499 66.516 171.207 66.9 170.623 67.012L171.883 70H170.395L169.243 67.048H168.787ZM168.787 63.484V66.028H169.783C169.911 66.028 169.999 66.008 170.047 65.968C170.095 65.92 170.119 65.832 170.119 65.704V63.808C170.119 63.68 170.095 63.596 170.047 63.556C169.999 63.508 169.911 63.484 169.783 63.484H168.787ZM174.075 68.944H176.379V70H172.683V62.428H176.283V63.484H174.075V65.584H175.935V66.652H174.075V68.944ZM177.123 70V68.38H178.587V70H177.123ZM183.142 68.944H185.446V70H181.75V62.428H185.35V63.484H183.142V65.584H185.002V66.652H183.142V68.944ZM187.582 70H186.358V62.428H187.87L189.142 66.928L190.414 62.428H191.926V70H190.714V64.684L189.706 68.356H188.59L187.582 64.696V70ZM193.205 62.428H195.989C196.861 62.428 197.297 62.824 197.297 63.616V66.028C197.297 66.82 196.861 67.216 195.989 67.216H194.585V70H193.205V62.428ZM195.917 65.836V63.808C195.917 63.68 195.893 63.596 195.845 63.556C195.797 63.508 195.709 63.484 195.581 63.484H194.585V66.16H195.581C195.709 66.16 195.797 66.14 195.845 66.1C195.893 66.052 195.917 65.964 195.917 65.836ZM199.565 62.428H201.029C201.901 62.428 202.337 62.824 202.337 63.616V68.812C202.337 69.604 201.901 70 201.029 70H199.565C198.693 70 198.257 69.604 198.257 68.812V63.616C198.257 62.824 198.693 62.428 199.565 62.428ZM200.957 68.62V63.808C200.957 63.68 200.933 63.596 200.885 63.556C200.837 63.508 200.749 63.484 200.621 63.484H199.985C199.849 63.484 199.757 63.508 199.709 63.556C199.661 63.596 199.637 63.68 199.637 63.808V68.62C199.637 68.748 199.661 68.836 199.709 68.884C199.757 68.924 199.849 68.944 199.985 68.944H200.621C200.749 68.944 200.837 68.924 200.885 68.884C200.933 68.836 200.957 68.748 200.957 68.62ZM209.606 62.428H210.974L209.642 70H207.89L207.038 64.66L206.198 70H204.446L203.114 62.428H204.542L205.322 68.572L206.318 62.428H207.77L208.754 68.572L209.606 62.428ZM213.18 68.944H215.484V70H211.788V62.428H215.388V63.484H213.18V65.584H215.04V66.652H213.18V68.944ZM217.776 67.048V70H216.396V62.428H219.18C220.052 62.428 220.488 62.824 220.488 63.616V65.86C220.488 66.516 220.196 66.9 219.612 67.012L220.872 70H219.384L218.232 67.048H217.776ZM217.776 63.484V66.028H218.772C218.9 66.028 218.988 66.008 219.036 65.968C219.084 65.92 219.108 65.832 219.108 65.704V63.808C219.108 63.68 219.084 63.596 219.036 63.556C218.988 63.508 218.9 63.484 218.772 63.484H217.776ZM221.744 62.428H223.124V70H221.744V62.428ZM227.392 62.428H228.652V70H227.356L225.736 64.984V70H224.464V62.428H225.796L227.392 67.372V62.428ZM233.899 64.756H232.507V63.76C232.507 63.632 232.483 63.548 232.435 63.508C232.387 63.46 232.299 63.436 232.171 63.436H231.607C231.479 63.436 231.391 63.46 231.343 63.508C231.295 63.548 231.271 63.632 231.271 63.76V68.68C231.271 68.808 231.295 68.896 231.343 68.944C231.391 68.984 231.479 69.004 231.607 69.004H232.171C232.299 69.004 232.387 68.984 232.435 68.944C232.483 68.896 232.507 68.808 232.507 68.68V67H231.907V66.028H233.899V68.824C233.899 69.616 233.463 70.012 232.591 70.012H231.187C230.315 70.012 229.879 69.616 229.879 68.824V63.616C229.879 62.824 230.315 62.428 231.187 62.428H232.591C233.463 62.428 233.899 62.824 233.899 63.616V64.756ZM238.485 68.944H240.501V70H237.105V62.428H238.485V68.944ZM241.305 62.428H242.685V70H241.305V62.428ZM246.917 62.428H248.333L246.833 70H245.021L243.521 62.428H244.949L245.921 68.548L246.917 62.428ZM250.494 68.944H252.798V70H249.102V62.428H252.702V63.484H250.494V65.584H252.354V66.652H250.494V68.944ZM256.11 68.62V67C256.11 66.872 256.086 66.788 256.038 66.748C255.99 66.7 255.902 66.676 255.774 66.676H254.802C253.978 66.676 253.566 66.276 253.566 65.476V63.616C253.566 62.824 253.998 62.428 254.862 62.428H256.182C257.046 62.428 257.478 62.824 257.478 63.616V64.672H256.086V63.808C256.086 63.68 256.062 63.596 256.014 63.556C255.966 63.508 255.878 63.484 255.75 63.484H255.294C255.158 63.484 255.066 63.508 255.018 63.556C254.97 63.596 254.946 63.68 254.946 63.808V65.332C254.946 65.46 254.97 65.548 255.018 65.596C255.066 65.636 255.158 65.656 255.294 65.656H256.242C257.082 65.656 257.502 66.048 257.502 66.832V68.812C257.502 69.604 257.066 70 256.194 70H254.898C254.026 70 253.59 69.604 253.59 68.812V67.768H254.97V68.62C254.97 68.748 254.994 68.836 255.042 68.884C255.09 68.924 255.182 68.944 255.318 68.944H255.774C255.902 68.944 255.99 68.924 256.038 68.884C256.086 68.836 256.11 68.748 256.11 68.62ZM258.455 70V68.38H259.919V70H258.455Z" fill="black"/>
</svg>
