<svg width="253" height="59" viewBox="0 0 253 59" fill="none" xmlns="http://www.w3.org/2000/svg">
<path d="M77 9.4248H83.1195V42.7083H77V9.4248Z" fill="black"/>
<path d="M101.513 9.4248H107.1V42.7083H101.353L94.1694 20.66V42.7083H88.5289V9.4248H94.4355L101.513 31.1567V9.4248Z" fill="black"/>
<path d="M117.865 9.4248H124.356C128.223 9.4248 130.157 11.1655 130.157 14.6468V37.4863C130.157 40.9677 128.223 42.7083 124.356 42.7083H117.865C113.998 42.7083 112.064 40.9677 112.064 37.4863V14.6468C112.064 11.1655 113.998 9.4248 117.865 9.4248ZM124.037 36.6424V15.4907C124.037 14.9281 123.931 14.5589 123.718 14.383C123.505 14.1721 123.115 14.0666 122.547 14.0666H119.727C119.124 14.0666 118.716 14.1721 118.503 14.383C118.29 14.5589 118.184 14.9281 118.184 15.4907V36.6424C118.184 37.205 118.29 37.5918 118.503 37.8028C118.716 37.9787 119.124 38.0666 119.727 38.0666H122.547C123.115 38.0666 123.505 37.9787 123.718 37.8028C123.931 37.5918 124.037 37.205 124.037 36.6424Z" fill="black"/>
<path d="M147.914 9.4248H154.193L147.542 42.7083H139.507L132.855 9.4248H139.187L143.498 36.3259L147.914 9.4248Z" fill="black"/>
<path d="M170.854 42.7083L169.577 35.7984H162.233L161.062 42.7083H154.943L161.701 9.4248H169.949L177.026 42.7083H170.854ZM163.031 31.2094H168.725L165.798 15.2797L163.031 31.2094Z" fill="black"/>
<path d="M195.58 9.4248V14.0666H189.673V42.7083H183.554V14.0666H177.7V9.4248H195.58Z" fill="black"/>
<path d="M198.703 9.4248H204.823V42.7083H198.703V9.4248Z" fill="black"/>
<path d="M215.82 42.7083C211.953 42.7083 210.019 40.9677 210.019 37.4863V14.6468C210.019 11.1655 211.953 9.4248 215.82 9.4248H222.312C226.178 9.4248 228.112 11.1655 228.112 14.6468V37.4863C228.112 39.8775 227.225 41.4424 225.451 42.1808L229.549 47.1391H222.844L219.278 42.7083H215.82ZM216.139 15.4907V36.6424C216.139 37.205 216.245 37.5918 216.458 37.8028C216.671 37.9787 217.079 38.0666 217.682 38.0666H220.502C221.07 38.0666 221.46 37.9787 221.673 37.8028C221.886 37.5918 221.992 37.205 221.992 36.6424V15.4907C221.992 14.9281 221.886 14.5589 221.673 14.383C221.46 14.1721 221.07 14.0666 220.502 14.0666H217.682C217.079 14.0666 216.671 14.1721 216.458 14.383C216.245 14.5589 216.139 14.9281 216.139 15.4907Z" fill="black"/>
<path d="M246.827 42.7083L245.55 35.7984H238.207L237.036 42.7083H230.917L237.675 9.4248H245.923L253 42.7083H246.827ZM239.005 31.2094H244.699L241.772 15.2797L239.005 31.2094Z" fill="black"/>
<path d="M77 50.5676H79.2015C79.8681 50.5676 80.2013 50.866 80.2013 51.4627V55.3778C80.2013 55.9745 79.8681 56.2729 79.2015 56.2729H77V50.5676ZM79.1373 55.2693V51.5712C79.1373 51.4748 79.1189 51.4115 79.0822 51.3814C79.0456 51.3452 78.9783 51.3271 78.8804 51.3271H78.0549V55.5134H78.8804C78.9783 55.5134 79.0456 55.4983 79.0822 55.4682C79.1189 55.432 79.1373 55.3657 79.1373 55.2693Z" fill="black"/>
<path d="M81.8085 50.5676H82.8634V56.2729H81.8085V50.5676Z" fill="black"/>
<path d="M86.3361 55.2331V54.0125C86.3361 53.916 86.3178 53.8527 86.2811 53.8226C86.2444 53.7864 86.1771 53.7684 86.0793 53.7684H85.3363C84.7064 53.7684 84.3914 53.467 84.3914 52.8642V51.4627C84.3914 50.866 84.7217 50.5676 85.3821 50.5676H86.3911C87.0516 50.5676 87.3818 50.866 87.3818 51.4627V52.2584H86.3178V51.6074C86.3178 51.511 86.2994 51.4477 86.2627 51.4175C86.226 51.3814 86.1588 51.3633 86.0609 51.3633H85.7123C85.6084 51.3633 85.5381 51.3814 85.5014 51.4175C85.4647 51.4477 85.4463 51.511 85.4463 51.6074V52.7557C85.4463 52.8521 85.4647 52.9184 85.5014 52.9546C85.5381 52.9847 85.6084 52.9998 85.7123 52.9998H86.437C87.0791 52.9998 87.4002 53.2952 87.4002 53.8859V55.3778C87.4002 55.9745 87.0669 56.2729 86.4003 56.2729H85.4096C84.7431 56.2729 84.4098 55.9745 84.4098 55.3778V54.5911H85.4647V55.2331C85.4647 55.3295 85.483 55.3958 85.5197 55.432C85.5564 55.4621 85.6267 55.4772 85.7307 55.4772H86.0793C86.1771 55.4772 86.2444 55.4621 86.2811 55.432C86.3178 55.3958 86.3361 55.3295 86.3361 55.2331Z" fill="black"/>
<path d="M88.8709 50.5676H90.999C91.6656 50.5676 91.9989 50.866 91.9989 51.4627V53.2801C91.9989 53.8768 91.6656 54.1752 90.999 54.1752H89.9258V56.2729H88.8709V50.5676ZM90.944 53.1354V51.6074C90.944 51.511 90.9256 51.4477 90.8889 51.4175C90.8523 51.3814 90.785 51.3633 90.6871 51.3633H89.9258V53.3796H90.6871C90.785 53.3796 90.8523 53.3645 90.8889 53.3344C90.9256 53.2982 90.944 53.2319 90.944 53.1354Z" fill="black"/>
<path d="M94.4477 55.4772H96.2089V56.2729H93.3836V50.5676H96.1355V51.3633H94.4477V52.9456H95.8695V53.7503H94.4477V55.4772Z" fill="black"/>
<path d="M99.7583 50.5676H100.721V56.2729H99.7308L98.4924 52.4935V56.2729H97.5201V50.5676H98.5383L99.7583 54.2928V50.5676Z" fill="black"/>
<path d="M104.154 55.2331V54.0125C104.154 53.916 104.136 53.8527 104.099 53.8226C104.062 53.7864 103.995 53.7684 103.897 53.7684H103.154C102.524 53.7684 102.209 53.467 102.209 52.8642V51.4627C102.209 50.866 102.54 50.5676 103.2 50.5676H104.209C104.87 50.5676 105.2 50.866 105.2 51.4627V52.2584H104.136V51.6074C104.136 51.511 104.117 51.4477 104.081 51.4175C104.044 51.3814 103.977 51.3633 103.879 51.3633H103.53C103.426 51.3633 103.356 51.3814 103.319 51.4175C103.283 51.4477 103.264 51.511 103.264 51.6074V52.7557C103.264 52.8521 103.283 52.9184 103.319 52.9546C103.356 52.9847 103.426 52.9998 103.53 52.9998H104.255C104.897 52.9998 105.218 53.2952 105.218 53.8859V55.3778C105.218 55.9745 104.885 56.2729 104.218 56.2729H103.228C102.561 56.2729 102.228 55.9745 102.228 55.3778V54.5911H103.283V55.2331C103.283 55.3295 103.301 55.3958 103.338 55.432C103.374 55.4621 103.445 55.4772 103.549 55.4772H103.897C103.995 55.4772 104.062 55.4621 104.099 55.432C104.136 55.3958 104.154 55.3295 104.154 55.2331Z" fill="black"/>
<path d="M106.744 50.5676H107.799V56.2729H106.744V50.5676Z" fill="black"/>
<path d="M111.675 50.5676H112.638V56.2729H111.648L110.409 52.4935V56.2729H109.437V50.5676H110.455L111.675 54.2928V50.5676Z" fill="black"/>
<path d="M117.263 52.3217H116.199V51.5712C116.199 51.4748 116.181 51.4115 116.144 51.3814C116.108 51.3452 116.04 51.3271 115.942 51.3271H115.511C115.413 51.3271 115.346 51.3452 115.309 51.3814C115.273 51.4115 115.254 51.4748 115.254 51.5712V55.2783C115.254 55.3747 115.273 55.441 115.309 55.4772C115.346 55.5073 115.413 55.5224 115.511 55.5224H115.942C116.04 55.5224 116.108 55.5073 116.144 55.4772C116.181 55.441 116.199 55.3747 116.199 55.2783V54.0125H115.741V53.2801H117.263V55.3868C117.263 55.9835 116.93 56.2819 116.263 56.2819H115.19C114.524 56.2819 114.19 55.9835 114.19 55.3868V51.4627C114.19 50.866 114.524 50.5676 115.19 50.5676H116.263C116.93 50.5676 117.263 50.866 117.263 51.4627V52.3217Z" fill="black"/>
<path d="M123.189 50.5676H124.244V56.2729H123.189V53.8407H121.996V56.2729H120.942V50.5676H121.996V53.045H123.189V50.5676Z" fill="black"/>
<path d="M126.895 55.4772H128.656V56.2729H125.831V50.5676H128.582V51.3633H126.895V52.9456H128.316V53.7503H126.895V55.4772Z" fill="black"/>
<path d="M132.343 56.2729L132.123 55.0884H130.857L130.655 56.2729H129.6L130.765 50.5676H132.187L133.407 56.2729H132.343ZM130.994 54.3018H131.976L131.471 51.5712L130.994 54.3018Z" fill="black"/>
<path d="M135.678 55.4772H137.219V56.2729H134.623V50.5676H135.678V55.4772Z" fill="black"/>
<path d="M141.08 50.5676V51.3633H140.062V56.2729H139.007V51.3633H137.998V50.5676H141.08Z" fill="black"/>
<path d="M144.516 50.5676H145.571V56.2729H144.516V53.8407H143.324V56.2729H142.269V50.5676H143.324V53.045H144.516V50.5676Z" fill="black"/>
<path d="M150.185 52.4573H149.121V51.5712C149.121 51.4748 149.103 51.4115 149.066 51.3814C149.029 51.3452 148.962 51.3271 148.864 51.3271H148.433C148.335 51.3271 148.268 51.3452 148.231 51.3814C148.194 51.4115 148.176 51.4748 148.176 51.5712V55.2783C148.176 55.3747 148.194 55.441 148.231 55.4772C148.268 55.5073 148.335 55.5224 148.433 55.5224H148.864C148.962 55.5224 149.029 55.5073 149.066 55.4772C149.103 55.441 149.121 55.3747 149.121 55.2783V54.4103H150.185V55.3868C150.185 55.9835 149.852 56.2819 149.185 56.2819H148.112C147.445 56.2819 147.112 55.9835 147.112 55.3868V51.4627C147.112 50.866 147.445 50.5676 148.112 50.5676H149.185C149.852 50.5676 150.185 50.866 150.185 51.4627V52.4573Z" fill="black"/>
<path d="M154.011 56.2729L153.79 55.0884H152.525L152.323 56.2729H151.268L152.433 50.5676H153.855L155.075 56.2729H154.011ZM152.662 54.3018H153.644L153.139 51.5712L152.662 54.3018Z" fill="black"/>
<path d="M157.346 54.0486V56.2729H156.291V50.5676H158.419C159.086 50.5676 159.419 50.866 159.419 51.4627V53.1535C159.419 53.6478 159.196 53.9371 158.749 54.0215L159.712 56.2729H158.575L157.694 54.0486H157.346ZM157.346 51.3633V53.2801H158.107C158.205 53.2801 158.272 53.265 158.309 53.2349C158.346 53.1987 158.364 53.1324 158.364 53.036V51.6074C158.364 51.511 158.346 51.4477 158.309 51.4175C158.272 51.3814 158.205 51.3633 158.107 51.3633H157.346Z" fill="black"/>
<path d="M162.002 55.4772H163.763V56.2729H160.938V50.5676H163.69V51.3633H162.002V52.9456H163.424V53.7503H162.002V55.4772Z" fill="black"/>
<path d="M164.946 56.2729V55.0523H166.065V56.2729H164.946Z" fill="black"/>
<path d="M170.775 55.4772H172.536V56.2729H169.711V50.5676H172.462V51.3633H170.775V52.9456H172.196V53.7503H170.775V55.4772Z" fill="black"/>
<path d="M174.783 56.2729H173.847V50.5676H175.003L175.975 53.9582L176.947 50.5676H178.103V56.2729H177.177V52.2674L176.406 55.0342H175.553L174.783 52.2765V56.2729Z" fill="black"/>
<path d="M179.694 50.5676H181.823C182.489 50.5676 182.822 50.866 182.822 51.4627V53.2801C182.822 53.8768 182.489 54.1752 181.823 54.1752H180.749V56.2729H179.694V50.5676ZM181.768 53.1354V51.6074C181.768 51.511 181.749 51.4477 181.712 51.4175C181.676 51.3814 181.609 51.3633 181.511 51.3633H180.749V53.3796H181.511C181.609 53.3796 181.676 53.3645 181.712 53.3344C181.749 53.2982 181.768 53.2319 181.768 53.1354Z" fill="black"/>
<path d="M185.17 50.5676H186.289C186.956 50.5676 187.289 50.866 187.289 51.4627V55.3778C187.289 55.9745 186.956 56.2729 186.289 56.2729H185.17C184.504 56.2729 184.17 55.9745 184.17 55.3778V51.4627C184.17 50.866 184.504 50.5676 185.17 50.5676ZM186.234 55.2331V51.6074C186.234 51.511 186.216 51.4477 186.179 51.4175C186.143 51.3814 186.075 51.3633 185.978 51.3633H185.491C185.387 51.3633 185.317 51.3814 185.28 51.4175C185.244 51.4477 185.225 51.511 185.225 51.6074V55.2331C185.225 55.3295 185.244 55.3958 185.28 55.432C185.317 55.4621 185.387 55.4772 185.491 55.4772H185.978C186.075 55.4772 186.143 55.4621 186.179 55.432C186.216 55.3958 186.234 55.3295 186.234 55.2331Z" fill="black"/>
<path d="M193.459 50.5676H194.505L193.487 56.2729H192.148L191.496 52.2494L190.854 56.2729H189.515L188.497 50.5676H189.588L190.185 55.1969L190.946 50.5676H192.056L192.808 55.1969L193.459 50.5676Z" fill="black"/>
<path d="M196.805 55.4772H198.566V56.2729H195.741V50.5676H198.493V51.3633H196.805V52.9456H198.227V53.7503H196.805V55.4772Z" fill="black"/>
<path d="M200.932 54.0486V56.2729H199.877V50.5676H202.005C202.672 50.5676 203.005 50.866 203.005 51.4627V53.1535C203.005 53.6478 202.782 53.9371 202.336 54.0215L203.299 56.2729H202.161L201.281 54.0486H200.932ZM200.932 51.3633V53.2801H201.694C201.791 53.2801 201.859 53.265 201.895 53.2349C201.932 53.1987 201.95 53.1324 201.95 53.036V51.6074C201.95 51.511 201.932 51.4477 201.895 51.4175C201.859 51.3814 201.791 51.3633 201.694 51.3633H200.932Z" fill="black"/>
<path d="M204.579 50.5676H205.634V56.2729H204.579V50.5676Z" fill="black"/>
<path d="M209.511 50.5676H210.474V56.2729H209.483L208.245 52.4935V56.2729H207.272V50.5676H208.291L209.511 54.2928V50.5676Z" fill="black"/>
<path d="M215.099 52.3217H214.035V51.5712C214.035 51.4748 214.016 51.4115 213.98 51.3814C213.943 51.3452 213.876 51.3271 213.778 51.3271H213.347C213.249 51.3271 213.182 51.3452 213.145 51.3814C213.108 51.4115 213.09 51.4748 213.09 51.5712V55.2783C213.09 55.3747 213.108 55.441 213.145 55.4772C213.182 55.5073 213.249 55.5224 213.347 55.5224H213.778C213.876 55.5224 213.943 55.5073 213.98 55.4772C214.016 55.441 214.035 55.3747 214.035 55.2783V54.0125H213.576V53.2801H215.099V55.3868C215.099 55.9835 214.766 56.2819 214.099 56.2819H213.026C212.359 56.2819 212.026 55.9835 212.026 55.3868V51.4627C212.026 50.866 212.359 50.5676 213.026 50.5676H214.099C214.766 50.5676 215.099 50.866 215.099 51.4627V52.3217Z" fill="black"/>
<path d="M219.832 55.4772H221.373V56.2729H218.777V50.5676H219.832V55.4772Z" fill="black"/>
<path d="M222.601 50.5676H223.656V56.2729H222.601V50.5676Z" fill="black"/>
<path d="M227.505 50.5676H228.587L227.441 56.2729H226.056L224.909 50.5676H226.001L226.744 55.1788L227.505 50.5676Z" fill="black"/>
<path d="M230.853 55.4772H232.614V56.2729H229.789V50.5676H232.541V51.3633H230.853V52.9456H232.275V53.7503H230.853V55.4772Z" fill="black"/>
<path d="M235.76 55.2331V54.0125C235.76 53.916 235.742 53.8527 235.705 53.8226C235.668 53.7864 235.601 53.7684 235.503 53.7684H234.76C234.131 53.7684 233.816 53.467 233.816 52.8642V51.4627C233.816 50.866 234.146 50.5676 234.806 50.5676H235.815C236.476 50.5676 236.806 50.866 236.806 51.4627V52.2584H235.742V51.6074C235.742 51.511 235.724 51.4477 235.687 51.4175C235.65 51.3814 235.583 51.3633 235.485 51.3633H235.136C235.033 51.3633 234.962 51.3814 234.925 51.4175C234.889 51.4477 234.87 51.511 234.87 51.6074V52.7557C234.87 52.8521 234.889 52.9184 234.925 52.9546C234.962 52.9847 235.033 52.9998 235.136 52.9998H235.861C236.503 52.9998 236.824 53.2952 236.824 53.8859V55.3778C236.824 55.9745 236.491 56.2729 235.824 56.2729H234.834C234.167 56.2729 233.834 55.9745 233.834 55.3778V54.5911H234.889V55.2331C234.889 55.3295 234.907 55.3958 234.944 55.432C234.981 55.4621 235.051 55.4772 235.155 55.4772H235.503C235.601 55.4772 235.668 55.4621 235.705 55.432C235.742 55.3958 235.76 55.3295 235.76 55.2331Z" fill="black"/>
<path d="M238.167 56.2729V55.0523H239.286V56.2729H238.167Z" fill="black"/>
<rect x="24.2131" y="18.2017" width="24.0544" height="24.0561" transform="rotate(-45 24.2131 18.2017)" fill="#FF8B00" stroke="white" stroke-width="2.5"/>
<rect x="24.2131" y="40.647" width="24.0544" height="24.0561" transform="rotate(-45 24.2131 40.647)" fill="#636363" stroke="white" stroke-width="2.5"/>
<rect x="1.76777" y="40.647" width="24.0544" height="24.0561" transform="rotate(-45 1.76777 40.647)" fill="#54B4D7" stroke="white" stroke-width="2.5"/>
</svg>
