<svg id="Layer_1" data-name="Layer 1" xmlns="http://www.w3.org/2000/svg" viewBox="0 0 198 164"><defs><style>.cls-1{fill:#0b3d91;}.cls-2{fill:#fff;}.cls-3{fill:#fc3d21;}</style></defs><circle class="cls-1" cx="92.06" cy="82" r="80.6"/><circle class="cls-2" cx="87.32" cy="16.87" r="0.91"/><circle class="cls-2" cx="96.59" cy="18.08" r="0.91"/><circle class="cls-2" cx="108.77" cy="34.48" r="0.91"/><circle class="cls-2" cx="42.02" cy="118.8" r="0.91"/><circle class="cls-2" cx="44.35" cy="126.04" r="0.91"/><circle class="cls-2" cx="33.15" cy="119.89" r="0.67"/><circle class="cls-2" cx="69.9" cy="134.1" r="0.67"/><circle class="cls-2" cx="127.55" cy="122.13" r="0.67"/><circle class="cls-2" cx="144.28" cy="103.93" r="0.67"/><circle class="cls-2" cx="62.2" cy="39.74" r="0.67"/><circle class="cls-2" cx="80.63" cy="26.21" r="0.67"/><circle class="cls-2" cx="78.62" cy="24.9" r="0.67"/><circle class="cls-2" cx="76.81" cy="23.56" r="0.67"/><circle class="cls-2" cx="65.09" cy="43.25" r="0.67"/><circle class="cls-2" cx="92.23" cy="8.02" r="0.67"/><circle class="cls-2" cx="96.69" cy="27.54" r="0.67"/><circle class="cls-2" cx="89.66" cy="23.73" r="0.67"/><circle class="cls-2" cx="77.62" cy="28.9" r="0.67"/><circle class="cls-2" cx="130.74" cy="140.01" r="0.67"/><circle class="cls-2" cx="40.87" cy="123.4" r="0.67"/><circle class="cls-2" cx="87.97" cy="132.12" r="0.67"/><circle class="cls-2" cx="54.89" cy="122.85" r="0.67"/><circle class="cls-2" cx="60.75" cy="132.41" r="0.67"/><circle class="cls-2" cx="103.89" cy="126.38" r="0.67"/><circle class="cls-2" cx="127.67" cy="112.96" r="0.67"/><circle class="cls-2" cx="145.69" cy="121.2" r="0.67"/><circle class="cls-2" cx="151.84" cy="125.14" r="0.67"/><circle class="cls-2" cx="152.84" cy="114.41" r="0.67"/><circle class="cls-2" cx="63.2" cy="99.23" r="0.67"/><circle class="cls-2" cx="63.47" cy="114.77" r="0.91"/><circle class="cls-2" cx="68.88" cy="126.21" r="0.91"/><circle class="cls-2" cx="133.82" cy="114.29" r="0.91"/><circle class="cls-2" cx="157.2" cy="112.96" r="0.91"/><circle class="cls-2" cx="145.64" cy="108.03" r="0.91"/><circle class="cls-2" cx="133.82" cy="108.5" r="0.91"/><path class="cls-2" d="M109.46,16.32l2.24-.22L109.46,16a.94.94,0,0,0-.86-.69l-.21-2.38v2.24a1,1,0,0,0-.76.85l-2.39.22h2.39a1,1,0,0,0,.81.76l.19,2.38.14-2.38A1,1,0,0,0,109.46,16.32Z"/><path class="cls-2" d="M71.59,41.32l2.24-.22L71.59,41a1,1,0,0,0-.86-.83l-.21-2.24-.12,2.26a1.06,1.06,0,0,0-.79.86l-2.38.22,2.38.12a1,1,0,0,0,.79.76l.22,2.38.11-2.38A1,1,0,0,0,71.59,41.32Z"/><path class="cls-2" d="M155.55,107.48l2.24-.22-2.24-.14a1,1,0,0,0-.85-.81l-.22-2.24v2.24a1,1,0,0,0-.76.86l-2.38.21,2.38.12a1,1,0,0,0,.79.76l.21,2.39v-2.39A1,1,0,0,0,155.55,107.48Z"/><path class="cls-2" d="M63.94,142.06l2.27-.22H63.94a1,1,0,0,0-.83-.83l-.24-2.24L62.75,141a1,1,0,0,0-.76.84l-2.39.21,2.39.12a.91.91,0,0,0,.78.76l.22,2.39.12-2.39A.94.94,0,0,0,63.94,142.06Z"/><path class="cls-2" d="M148.4,125.18l2.39-.21-2.39-.12a.94.94,0,0,0-.83-.83l-.24-2.24-.12,2.38a.94.94,0,0,0-.76.83l-2.38.22,2.38.12a.93.93,0,0,0,.79.76l.21,2.38v-2.38A1,1,0,0,0,148.4,125.18Z"/><path class="cls-3" d="M111.18,62.7C101.81,66.34,92.68,69.58,85,72,69.21,76.9,26.31,90.2.5,107l2.17.84A158.4,158.4,0,0,1,38.58,93C49.29,89.6,83.87,81.48,99.67,77.07c5.29-1.5,11.51-3.46,18.09-5.84-1.53-2.12-3.15-4.27-4.77-6.41C112.35,64.1,111.77,63.39,111.18,62.7Zm11.46,15.77c-2.38,1.53-4.17,2.77-5.5,3.53-7.73,4.46-45.29,30.12-53.87,36s-32.19,28.32-39.34,34.82l-.24,2.65a468,468,0,0,1,38.63-32.06c11.08-8.43,34-24,41.8-29s14.16-9.18,20.21-13.21c-.11-.16-.21-.32-.31-.5Zm35.23-37.2A355.37,355.37,0,0,1,112.8,62.05l1.19,1.5q2.82,3.58,5.32,7.15a183.33,183.33,0,0,0,39.15-19.28,423,423,0,0,1-34.6,26.22l1.67,2.76C142.21,69.23,153.48,61,160,55.5c9-7.6,29.62-24.6,37.46-47.38A136.16,136.16,0,0,1,157.87,41.27Z"/><path class="cls-2" d="M81.7,102c-1.77-2.22-4.24-5.22-6.08-7.56-2.38-3.1-4.77-6.24-6.84-9.36l-2,.5a138,138,0,0,0,8.39,11.72c2.24,2.82,4.27,5.08,5.31,6.49l1.2,1.76,1.88-1.34C82.94,103.45,82.32,102.73,81.7,102Zm13,11.91c-1.45-1.38-5-3.69-8.67-7.15l-2.48,1.51c2.38,3.33,5.62,7.46,8.15,8.67,3.77,1.88,4.89-1.38,3-3.15ZM114,63.67C93,37,67.18,22.42,56.1,31.28c-8.63,6.84-5.1,26.89,6.79,47.88l1.84-.62C52.81,58.05,49.45,39,57.58,32.57c10.2-8.13,34.87,6.53,55.34,32.25A149.15,149.15,0,0,1,124,80.71c12.09,20,15.78,38.14,7.44,45.43-2.55,2.26-10.34,3.14-20.57-1.46a.65.65,0,0,0,.26.79c8.82,3.55,17.28,4.77,21.45,1.5C143,118.85,135.06,90.08,114,63.55Z"/><path class="cls-2" d="M23.64,66.7H37.13L48.45,85.91v-15a6.56,6.56,0,0,0-2.88-4.22h9.34a5.93,5.93,0,0,0-2.38,4.22V93c0,1.36,1.95,3.22,2.88,4h-13L30.86,77.59V92.77c0,1.53,1.48,3,3,4.2H23.93a5.44,5.44,0,0,0,2.9-4V71.18C26.83,69.34,25.05,67.84,23.64,66.7Z"/><path class="cls-2" d="M147.07,96.92h18a4.76,4.76,0,0,1-2.7-3c-.62-1.58-10.13-27.24-10.13-27.24h-6.72l-6.24,4.4v.17c-.31,1.81-5.65,21.16-6,22.12s-2.77,2.79-3.7,3.57h9.68a4.26,4.26,0,0,1-1.57-3.33c.16-1.22.71-3.63.71-3.63h10a17.27,17.27,0,0,1,1,3.32C149.45,94.56,148.19,95.94,147.07,96.92Zm-7.89-10.77,3.39-11,4.45,11ZM137.66,67.7l1.5-1.1h-2.62C136.93,67,137.3,67.32,137.66,67.7Z"/><path class="cls-2" d="M69,93.63c.2-1.22.72-3.62.72-3.62h10a20,20,0,0,1,1,3.31c.19,1.24-1.08,2.62-2.17,3.6h15.8l1.1-.62a6.07,6.07,0,0,1-1.55-2.38c-.6-1.58-10.13-27.24-10.13-27.24H68c.76.69,2.93,2.55,2.6,4.57s-5.65,21.16-6,22.12S61.82,96.3,60.89,97h9.68A4.41,4.41,0,0,1,69,93.63Zm5-18.49,4.45,11H70.62Z"/><path class="cls-2" d="M123.6,81.69c-3,2-6.06,4-9.35,6.15,1.48.71,2.65,1.62,2.77,2.76.21,2.2-4.17,3.24-8.11,2.79a10.86,10.86,0,0,1-2.38-.57l-2.38,1.6-3.08,2v3.12a5.56,5.56,0,0,1,3.89-3,21.11,21.11,0,0,0,10.75,1.36c4-.22,11.65-4.46,11.53-9.32A9.4,9.4,0,0,0,123.6,81.69Zm-22.55,7.46v3.19c.71-.51,1.43-1,2.14-1.43A15.64,15.64,0,0,1,101.05,89.15Zm19.76-9.53a19.88,19.88,0,0,0-2.39-1.22c-3.86-1.81-7.89-2.12-8.74-4.57-.57-1.72,1.09-3.32,5.19-3.25a16.2,16.2,0,0,1,8.92,3.36V66.27c-.31.31-1.62,1.81-2.84,1.57a53.33,53.33,0,0,0-10.77-1.09,9.72,9.72,0,0,0-9.8,9.1c-.21,7.15,5.46,9,8.65,10.13l1.1.36c3.07-2,5.48-3.53,6.91-4.34A42,42,0,0,0,120.81,79.62Z"/></svg>