<svg id="Layer_1" data-name="Layer 1" xmlns="http://www.w3.org/2000/svg" viewBox="0 0 208 70"><defs><style>.cls-1{fill:#002e55;}</style></defs><polygon class="cls-1" points="109.69 67.81 99.66 67.81 91.8 42 91.26 42 91.26 67.81 80.19 67.81 80.19 14.95 90.4 14.95 98.19 40.37 98.22 40.37 98.22 14.95 109.69 14.95 109.69 67.81"/><path class="cls-1" d="M130.93,48.13h-5.34l2.31-21.71h.21ZM136.88,15h-17.6l-7.43,52.86h11.87l1-9.84h7.07l1,9.84h11.94Z"/><polygon class="cls-1" points="158.19 56.35 157.97 56.35 153.32 14.95 141.38 14.95 149.25 67.81 166.84 67.81 174.27 14.95 162.44 14.95 158.19 56.35"/><polygon class="cls-1" points="193.53 45.71 193.53 67.81 181.23 67.81 181.23 45.71 170.99 14.95 183.14 14.95 187.51 34.21 187.65 34.21 192.01 14.95 204.13 14.95 193.53 45.71"/><path class="cls-1" d="M190.28,1.82h1.52a.25.25,0,0,1,.25.26V4.42a.24.24,0,0,1-.25.25h-1.52a.24.24,0,0,1-.25-.25V2.08A.25.25,0,0,1,190.28,1.82Z"/><path class="cls-1" d="M85.71,11.06a.24.24,0,0,1-.22-.18l-.32-1.05H82.5l-.33,1.05a.27.27,0,0,1-.25.18H80.44c-.14,0-.21,0-.18-.11l2.6-8.87c0-.11.11-.26.18-.26h1.55c.11,0,.14.18.18.29l2.6,8.77c0,.1,0,.18-.22.18ZM83.87,5.5l-.79,2.67h1.58Z"/><path class="cls-1" d="M104,11.06c-.1,0-.18,0-.18-.11V7.67l-1,3.28a.24.24,0,0,1-.25.14h-1.09c-.1,0-.21,0-.25-.11l-1-3.28L100.06,11c0,.11,0,.15-.18.15H98.33c-.11,0-.18,0-.18-.11l.36-8.87c0-.11,0-.25.14-.25h1.66c.11,0,.18.18.22.25l1.19,5.12.14,1.12L102,7.31l1.34-5.16c0-.11.1-.25.21-.25h1.66c.11,0,.14.21.14.29l.37,8.76a.17.17,0,0,1-.18.18H104Z"/><path class="cls-1" d="M116.61,11.06h-.36V2.22c0-.11.25-.4.36-.4h4.8c.11,0,0,.29,0,.4V3.77c0,.11.11.11,0,.11h-3.1V5.54h2.38c.1,0,.07.18.07.29V7.38c0,.11,0,.18-.07.18h-2.38V9.22h3.1c.11,0,0,.11,0,.21V11c0,.11.11,0,0,0Z"/><path class="cls-1" d="M136.26,11.06c-.1,0-.21-.15-.25-.22l-1.33-3.25h-.87V11c0,.11.18,0,.07,0H132V2.22c0-.11.26-.4.36-.4h4.19c.11,0,.25.15.32.26l.65.79c.14.14,0,.32,0,.4V6.58c0,.18.07.26,0,.33l-.72.76,1.33,3.24c0,.11,0,.11-.1.11h-1.74Zm-.5-5.41V4.35s.07-.11,0-.15L135.62,4s-.08-.11-.15-.11h-1.55V5.72h1.62s0,.07.08,0Z"/><path class="cls-1" d="M149.28,11.06h-.43V2.22c0-.11.32-.4.43-.4h1.55c.11,0,0,.29,0,.4V11h0Z"/><path class="cls-1" d="M166.59,11a.44.44,0,0,1-.36.08h-3.39a.44.44,0,0,1-.36-.08l-.79-.72a.36.36,0,0,1-.18-.32V3.27a.58.58,0,0,1,.18-.33l.75-.83c.15-.14.26-.25.36-.25h3.39c.11,0,.22.14.37.25l.61.8c.11.1,0,.25,0,.39V4.67c0,.08.11,0,0,0h-2.06V4.31s.15-.07.11-.11L165.08,4V3.88h-1.27a.11.11,0,0,0-.1.07l-.29.25s-.15.08-.15.15V9s.11,0,.15.07l.25.15h1.51V9.07s-.1,0-.1-.07V8.6c0-.1.39-.21.5-.21h1.55c.11,0,0,.11,0,.21v1.48c0,.07.07.07,0,.22Z"/><path class="cls-1" d="M183.4,11.06a.21.21,0,0,1-.22-.18l-.33-1.05h-2.66l-.33,1.05a.27.27,0,0,1-.25.18h-1.48c-.18,0-.22,0-.22-.11l2.6-8.87c0-.11.11-.26.18-.26h1.55c.07,0,.15.18.18.29l2.6,8.77c0,.1,0,.18-.22.18ZM181.52,5.5l-.79,2.67h1.58Z"/><path class="cls-1" d="M203.52,11a.42.42,0,0,1-.36.08h-3.39a.52.52,0,0,1-.36-.08l-.8-.72a.57.57,0,0,1-.21-.32V8.6c0-.1.21-.28.32-.28h1.55c.11,0,0,.18,0,.28v.54h1.91V8.93s-.11,0-.11-.07v-1s.15-.11.11-.15l-.11-.18h-2.38a.46.46,0,0,1-.36-.14l-.79-.72a.67.67,0,0,1-.22-.36V3.19a.53.53,0,0,1,.22-.32L199.3,2c.14-.14.25-.25.36-.25h3.39c.14,0,.21.14.36.25l.61.79c.11.11,0,.26,0,.4V4.57c0,.1.11.07,0,.07h-1.51c-.11,0-.51,0-.51-.07V3.84h-1.33l-.11.08-.32.21s-.15.07-.15.11v1h.15l.28.14H203c.18,0,.21.07.36.22l.61.75c.14.15,0,.26,0,.36V9.87c0,.1.07.21,0,.32Z"/><path class="cls-1" d="M12.25,16a8,8,0,0,1-.43-1.73,6.32,6.32,0,0,1,0-1.23L3.56,7.63v.11A5.68,5.68,0,0,0,6.7,13.26Z"/><path class="cls-1" d="M12.11,11.06A7.56,7.56,0,0,1,13.3,8.71l.36-.43L4.32,1.5v.4A5.68,5.68,0,0,0,6.81,7.56Z"/><path class="cls-1" d="M27,36.44a7.72,7.72,0,0,1-4-1.73l-.36-.47L22.46,34a4.64,4.64,0,0,1-.9-1.77l.75-.36a5,5,0,0,1-2.56-2.67,10.71,10.71,0,0,1-.65-2.92l1.52.22a5.56,5.56,0,0,1-2.85-2.6,7.23,7.23,0,0,1-.61-4.18v-.4l1.87.87s-1.91-1.59-2.52-2A5.56,5.56,0,0,1,13.7,14a5.81,5.81,0,0,1,1.08-4.14l.39-.51.51.4,4,2.92c3.46,2.52,5.19,5.34,5.09,8.4a9.41,9.41,0,0,1-.22,1.44.57.57,0,0,1-.07.33c0,.11-.07.25-.11.36a9.19,9.19,0,0,1-.36.86,10.43,10.43,0,0,0-.79,3.14,2.41,2.41,0,0,0,.25,1.23,2.19,2.19,0,0,0,.61.68,2.61,2.61,0,0,0,1.23.47,2.17,2.17,0,0,0,.72,0h.18c.94.51.72,3.32.72,6.92"/><path class="cls-1" d="M15.14,21.3a11.09,11.09,0,0,1,0-1.63v-.14L3.63,13.87c0,.32.11.68.15,1a5.67,5.67,0,0,0,4.11,4.55Z"/><path class="cls-1" d="M16.83,26A6.46,6.46,0,0,1,16,24.65a9.74,9.74,0,0,1-.54-1.33L5.4,20.65c.15.39.33.79.51,1.19a5.74,5.74,0,0,0,4.43,3.28Z"/><path class="cls-1" d="M17.91,29.88A9,9,0,0,1,17.37,28L8.76,26.81c.21.33.43.62.68.94a5.72,5.72,0,0,0,4.83,2.31Z"/><path class="cls-1" d="M19.36,33.16l.39-.18a1,1,0,0,1-.07-.29,1.44,1.44,0,0,0-.36-.65L19,31.65l-6,.25h0a5.83,5.83,0,0,0,6.35,1.26"/><path class="cls-1" d="M63.86,16a8,8,0,0,0,.43-1.73,8.42,8.42,0,0,0,0-1.23l8.26-5.41v.11a5.69,5.69,0,0,1-3.14,5.52Z"/><path class="cls-1" d="M64,11.06a7.56,7.56,0,0,0-1.19-2.35l-.36-.43L71.79,1.5v.4A5.68,5.68,0,0,1,69.3,7.56Z"/><path class="cls-1" d="M49.9,29.52h.18a2.89,2.89,0,0,0,.72,0A2.65,2.65,0,0,0,52,29.05a2.11,2.11,0,0,0,.61-.69,2.84,2.84,0,0,0,.25-1.22A10.73,10.73,0,0,0,52.1,24a9.19,9.19,0,0,0-.36-.86c0-.11-.07-.26-.11-.36a.57.57,0,0,0-.07-.33A10.23,10.23,0,0,1,51.34,21c-.11-3,1.63-5.88,5.09-8.4l4-2.92.5-.4.4.5a5.83,5.83,0,0,1,1.08,4.15,5.52,5.52,0,0,1-2.81,4.18c-.58.44-2.52,2-2.52,2L59,19.28l.07.39a7.3,7.3,0,0,1-.61,4.19,5.5,5.5,0,0,1-2.85,2.59l1.52-.21a10.39,10.39,0,0,1-.65,2.92,5.17,5.17,0,0,1-2.56,2.67l.75.36a4.68,4.68,0,0,1-.9,1.76l-.14.22-.36.47a7.49,7.49,0,0,1-4,1.73c0-3.61-.21-6.42.73-6.92"/><path class="cls-1" d="M61,21.3a11.09,11.09,0,0,0,0-1.63v-.14L72.55,13.8c0,.32-.11.68-.15,1a5.69,5.69,0,0,1-4.18,4.62Z"/><path class="cls-1" d="M59.31,26a6.06,6.06,0,0,0,.83-1.33,7.72,7.72,0,0,0,.54-1.33l10.06-2.67c-.14.39-.32.79-.5,1.19a5.76,5.76,0,0,1-4.44,3.28Z"/><path class="cls-1" d="M58.23,29.88A9,9,0,0,0,58.77,28l8.62-1.16-.69.94a5.7,5.7,0,0,1-4.83,2.31Z"/><path class="cls-1" d="M56.79,33.16l-.4-.18a.77.77,0,0,0,.07-.29,1.54,1.54,0,0,1,.36-.65l.36-.39,6,.25h0a5.84,5.84,0,0,1-6.34,1.26"/><path class="cls-1" d="M38.14,29.09l-.36.07h0c-3.89,0-9.7.14-9.7.14h0c.58.62.44,1.95.44,2.85v2.27c2.23.22,5.91.4,9.34.4h.32c3.39,0,6.74-.22,9.2-.4V32.15c0-.94-.08-2.23.5-2.85h0S42,29.12,38,29.09"/><path class="cls-1" d="M39,35.36H36.74V50.22l1.12.79L39,50.22V35.36Z"/><path class="cls-1" d="M44.92,35.11v11l1.77-1.19a1.65,1.65,0,0,0,.69-1.19v-8.8l-2.46.18"/><path class="cls-1" d="M43.08,35.22c-1,0-1.65.07-2.27.1v13.6l2.27-1.52Z"/><path class="cls-1" d="M30.79,35.07l-2.27-.18v8.87A1.42,1.42,0,0,0,29.24,45l1.55,1.12Z"/><path class="cls-1" d="M32.63,35.22V47.37l2.27,1.55V35.32c-.61,0-1.66-.07-2.27-.1"/><path class="cls-1" d="M42.36,14.66c-.75-2.34-1.91-3.35-3.75-3.32h-.14c-3.64,0-5.63,1-6.1,2.93a2.8,2.8,0,0,0-2,.68,2,2,0,0,0-.58,1.52A3.22,3.22,0,0,0,30,17.62a3.3,3.3,0,0,0,.4.76s.57-.72,2.52-.69h.4L30.28,28s3.47-.25,7.72-.25S46,28,46,28s-2.93-11.14-3.65-13.34m-5.51,7.68c-.08,0-1.34-1.58-1.34-1.58l-2.23,2.52,1.55-5.62h1.55a3.22,3.22,0,0,0-.44-2.38,2.23,2.23,0,0,0,2-.94H34.21c-.14,0-.28-.25-.1-.54.54-.9,2.16-1.48,4.43-1.48h0c1.77,0,2.38,1.51,2.74,2.92s1.44,4.54,2.2,8c0,0-2.13-2.45-2.23-2.45s-1.19,1.59-1.34,1.59-1.4-1.59-1.51-1.59-1.48,1.59-1.55,1.59m-4.8-5.88c-1,0-1.12.22-1.12.22v-.29c0-.4.25-1,1.81-1.12s2.3.51,2.3,1.16H32"/><path class="cls-1" d="M64.9,52.42c-.68,0-1.22.43-1.8.43H58.48V45c0-1.34-.14-1.59-1.48-1.59h-.25A1.74,1.74,0,0,0,54.88,45v.11c0,.54.32.8.32.94v6.74H47.88l-.58-1.55A2.26,2.26,0,0,0,45,49.6H43a2.24,2.24,0,0,0-2.2,1.66l-.44,1.55H35.8l-.68-1.55a2.47,2.47,0,0,0-2.46-1.66H30.79a2.21,2.21,0,0,0-2.17,1.66l-.39,1.55H16.44a1.07,1.07,0,0,1-1.12-1,.83.83,0,0,1,0-.29,4.69,4.69,0,0,1,.26-.69,11.83,11.83,0,0,1,2.48-3.28c0,.33.08.65.15,1a.85.85,0,0,0,1,.43.57.57,0,0,0,.29-.22A11.16,11.16,0,0,1,24.23,45a.63.63,0,0,0,.39-.51.77.77,0,0,0-.54-.9,14,14,0,0,0-5.88-1.33,7.39,7.39,0,0,0-1.33,0,.79.79,0,0,0-.65.36.82.82,0,0,0,0,.9l.11.14.47.58a12.07,12.07,0,0,0-5.45,7.47,5.65,5.65,0,0,1-1.44,2.77.8.8,0,0,0-.22.36,1.79,1.79,0,0,0,.18.33,5.88,5.88,0,0,1,1.48,2.67,13.91,13.91,0,0,0,1,2.66,10.85,10.85,0,0,0,4.54,5.09l-.43.5a.78.78,0,0,0-.22.87c.22.54.54.61,1.87.58a15.87,15.87,0,0,0,5.85-1.09.92.92,0,0,0,.47-1.19,1,1,0,0,0-.47-.46,11.57,11.57,0,0,1-4.58-3.5.83.83,0,0,0-.69-.36.73.73,0,0,0-.65.61l-.14.79a9.8,9.8,0,0,1-2.78-4.14,1.23,1.23,0,0,1,.8-1.55.55.55,0,0,1,.25,0H29.27a20.22,20.22,0,0,0-1.4,2.63,18.09,18.09,0,0,0-1.05,3.14v.29l-.25,1.22,1.19-.9.25-.21,1-.8h0l.61-.57a9.91,9.91,0,0,1,.76-2.1,15.72,15.72,0,0,1,1.11-2.16.92.92,0,0,0,.26-.54h2.05c-.58,1.44-1.15,2-1.77,3.32a6.51,6.51,0,0,0-.75,2.59v.83a13.07,13.07,0,0,0,0,1.77v.29l.11,1.33.93-1.11.18-.26a20.05,20.05,0,0,0,1.41-2.16,6.63,6.63,0,0,0,.43-.79,11.51,11.51,0,0,1,.18-3.32c.15-.83.29-1.48.4-2a1.7,1.7,0,0,0,.11-.61h1.76c-.14,1-.32,1.52-.46,2.49a11.4,11.4,0,0,0,.1,4.69,18.56,18.56,0,0,0,.91,3.14c0,.1.07.18.1.28L38,68.5l.58-1.33c0-.11.07-.18.11-.29a19.84,19.84,0,0,0,.93-3.25,12.16,12.16,0,0,0,0-4.58c-.18-1-.32-1.55-.47-2.56h1.77a1.7,1.7,0,0,0,.11.58c.11.5.25,1.15.4,2a11.13,11.13,0,0,1,.18,3.21,5.41,5.41,0,0,0,.43.83h0c.47.72.94,1.44,1.48,2.13l.21.25.94,1.12.11-1.34V65a11.5,11.5,0,0,0,0-1.66v-.75a7.44,7.44,0,0,0-.79-3,32.11,32.11,0,0,1-1.66-3.17h2.09a1.24,1.24,0,0,0,.29.57,16.86,16.86,0,0,1,1,1.88,10.43,10.43,0,0,1,.76,2.16,4.75,4.75,0,0,0,.72.76c.32.29.68.58,1,.83l.26.21,1.19.91-.26-1.23v-.29a17.41,17.41,0,0,0-1-3.21,18.88,18.88,0,0,0-1.7-2.67h8.55v4.48h0v2.88a5.14,5.14,0,0,0-.33,1.05,1.71,1.71,0,0,0,1.63,1.83h.5c1.34,0,1.48-.46,1.48-1.8v-4h0v-4.4H63.1a1.72,1.72,0,0,0,1.69.5,2.08,2.08,0,0,0,2.2-2v-.22h0c0-1.55-.61-2.41-2.16-2.41M34.29,54.83a.84.84,0,0,1-1-.5l-.65-1.91v1.69a.84.84,0,0,1-.83.76.86.86,0,0,1-.83-.79V52.45l.07.4h0l-.47,1.44a.78.78,0,0,1-1,.51.77.77,0,0,1-.51-.94l.29-.94.36-1.26a1.2,1.2,0,0,1,1.08-.87h1.74a1.37,1.37,0,0,1,1.33.8l.54,1.19h0l.29,1a.79.79,0,0,1-.51,1m12.19,0a.82.82,0,0,1-1-.54L45,52.81h0l-.47-.32v1.59a.7.7,0,0,1-.68.75h0a.79.79,0,0,1-.72-.79h0V52.49l-.5,1.84a.79.79,0,0,1-.91.54h0a.79.79,0,0,1-.4-.94l.33-1L42,51.77l.11-.22h0A1,1,0,0,1,43,51h2a1.38,1.38,0,0,1,1.23.79L46.62,53h0l.29,1a.84.84,0,0,1-.51,1"/><polygon class="cls-1" points="198.54 63.85 197.68 63.85 197.68 63.16 200.31 63.16 200.31 63.85 199.41 63.85 199.41 67.81 198.54 67.81 198.54 63.85"/><polygon class="cls-1" points="204.45 63.13 204.45 67.81 203.7 67.81 203.7 64.17 203.66 64.17 202.87 67.81 202.44 67.81 201.64 64.17 201.61 64.17 201.61 67.81 200.85 67.81 200.85 63.13 202 63.13 202.65 65.87 202.65 65.87 203.3 63.13 204.45 63.13"/></svg>