<svg width="181" height="88" viewBox="0 0 181 88" fill="none" xmlns="http://www.w3.org/2000/svg">
<path d="M3.40761 17.188H9.38761V50H3.40761V17.188ZM27.8817 17.188H33.3417V50H27.7257L20.7057 28.264V50H15.1937V17.188H20.9657L27.8817 38.612V17.188ZM44.3808 17.188H50.7248C54.5034 17.188 56.3928 18.904 56.3928 22.336V44.852C56.3928 48.284 54.5034 50 50.7248 50H44.3808C40.6021 50 38.7128 48.284 38.7128 44.852V22.336C38.7128 18.904 40.6021 17.188 44.3808 17.188ZM50.4128 44.02V23.168C50.4128 22.6133 50.3088 22.2493 50.1008 22.076C49.8928 21.868 49.5114 21.764 48.9568 21.764H46.2008C45.6114 21.764 45.2128 21.868 45.0048 22.076C44.7968 22.2493 44.6928 22.6133 44.6928 23.168V44.02C44.6928 44.5747 44.7968 44.956 45.0048 45.164C45.2128 45.3373 45.6114 45.424 46.2008 45.424H48.9568C49.5114 45.424 49.8928 45.3373 50.1008 45.164C50.3088 44.956 50.4128 44.5747 50.4128 44.02ZM74.2657 17.188H80.4017L73.9017 50H66.0497L59.5497 17.188H65.7377L69.9497 43.708L74.2657 17.188ZM97.2022 50L95.9542 43.188H88.7782L87.6342 50H81.6542L88.2582 17.188H96.3182L103.234 50H97.2022ZM89.5582 38.664H95.1222L92.2622 22.96L89.5582 38.664ZM121.885 17.188V21.764H116.113V50H110.133V21.764H104.413V17.188H121.885ZM125.457 17.188H131.437V50H125.457V17.188ZM142.703 50C138.925 50 137.035 48.284 137.035 44.852V22.336C137.035 18.904 138.925 17.188 142.703 17.188H149.047C152.826 17.188 154.715 18.904 154.715 22.336V44.852C154.715 47.2093 153.849 48.752 152.115 49.48L156.119 54.368H149.567L146.083 50H142.703ZM143.015 23.168V44.02C143.015 44.5747 143.119 44.956 143.327 45.164C143.535 45.3373 143.934 45.424 144.523 45.424H147.279C147.834 45.424 148.215 45.3373 148.423 45.164C148.631 44.956 148.735 44.5747 148.735 44.02V23.168C148.735 22.6133 148.631 22.2493 148.423 22.076C148.215 21.868 147.834 21.764 147.279 21.764H144.523C143.934 21.764 143.535 21.868 143.327 22.076C143.119 22.2493 143.015 22.6133 143.015 23.168ZM173.524 50L172.276 43.188H165.1L163.956 50H157.976L164.58 17.188H172.64L179.556 50H173.524ZM165.88 38.664H171.444L168.584 22.96L165.88 38.664Z" fill="black"/>
<path d="M6.048 65.184C6.048 65.736 6.048 66.276 6.048 66.804C6.056 67.332 6.064 67.856 6.072 68.376H6.756C7.572 68.376 8.204 68.084 8.652 67.5C9.1 66.916 9.324 66.092 9.324 65.028C9.324 63.932 9.104 63.096 8.664 62.52C8.224 61.944 7.612 61.656 6.828 61.656H6.072C6.064 62.168 6.056 62.684 6.048 63.204C6.048 63.724 6.048 64.244 6.048 64.764V65.184ZM3.468 61.608V61.044H7.02C7.828 61.044 8.528 61.2 9.12 61.512C9.72 61.824 10.184 62.276 10.512 62.868C10.84 63.46 11.004 64.176 11.004 65.016C11.004 65.864 10.824 66.584 10.464 67.176C10.104 67.768 9.608 68.22 8.976 68.532C8.344 68.844 7.616 69 6.792 69H3.468V68.436L4.476 68.328C4.492 67.824 4.5 67.312 4.5 66.792C4.5 66.272 4.5 65.736 4.5 65.184V64.764C4.5 64.26 4.5 63.756 4.5 63.252C4.5 62.74 4.492 62.228 4.476 61.716L3.468 61.608ZM12.116 61.608V61.044H15.728V61.608L14.72 61.716C14.712 62.212 14.704 62.716 14.696 63.228C14.696 63.732 14.696 64.244 14.696 64.764V65.28C14.696 65.784 14.696 66.292 14.696 66.804C14.704 67.308 14.712 67.816 14.72 68.328L15.728 68.436V69H12.116V68.436L13.124 68.328C13.14 67.832 13.148 67.328 13.148 66.816C13.148 66.304 13.148 65.792 13.148 65.28V64.764C13.148 64.26 13.148 63.756 13.148 63.252C13.148 62.74 13.14 62.228 13.124 61.716L12.116 61.608ZM19.5788 69.204C19.1308 69.204 18.6868 69.148 18.2468 69.036C17.8068 68.924 17.4308 68.768 17.1188 68.568L17.1908 66.84H18.1148L18.3548 68.292C18.5388 68.372 18.7268 68.436 18.9188 68.484C19.1108 68.524 19.3268 68.544 19.5668 68.544C20.0628 68.544 20.4508 68.428 20.7308 68.196C21.0188 67.956 21.1628 67.64 21.1628 67.248C21.1628 66.896 21.0628 66.62 20.8628 66.42C20.6628 66.22 20.3428 66.032 19.9028 65.856L19.4108 65.652C18.7548 65.372 18.2308 65.036 17.8388 64.644C17.4548 64.252 17.2628 63.74 17.2628 63.108C17.2628 62.636 17.3828 62.232 17.6228 61.896C17.8628 61.552 18.1948 61.292 18.6188 61.116C19.0508 60.932 19.5468 60.84 20.1068 60.84C20.5228 60.84 20.9108 60.896 21.2708 61.008C21.6308 61.12 21.9468 61.272 22.2188 61.464L22.1348 63.084H21.2228L20.9828 61.692C20.7028 61.564 20.4028 61.5 20.0828 61.5C19.6828 61.5 19.3428 61.608 19.0628 61.824C18.7828 62.032 18.6428 62.332 18.6428 62.724C18.6428 63.068 18.7508 63.348 18.9668 63.564C19.1828 63.78 19.4868 63.968 19.8788 64.128L20.3948 64.344C21.1788 64.672 21.7348 65.024 22.0628 65.4C22.3988 65.776 22.5668 66.26 22.5668 66.852C22.5668 67.556 22.2988 68.124 21.7628 68.556C21.2348 68.988 20.5068 69.204 19.5788 69.204ZM26.9889 61.656H26.4729C26.4649 62.168 26.4569 62.684 26.4489 63.204C26.4489 63.724 26.4489 64.244 26.4489 64.764V65.292H27.0369C27.6689 65.292 28.1289 65.12 28.4169 64.776C28.7049 64.432 28.8489 63.98 28.8489 63.42C28.8489 62.852 28.6929 62.416 28.3809 62.112C28.0769 61.808 27.6129 61.656 26.9889 61.656ZM23.8689 61.608V61.044H27.1089C28.2369 61.044 29.0609 61.264 29.5809 61.704C30.1089 62.136 30.3729 62.708 30.3729 63.42C30.3729 63.868 30.2609 64.284 30.0369 64.668C29.8209 65.044 29.4609 65.344 28.9569 65.568C28.4609 65.792 27.7889 65.904 26.9409 65.904H26.4489C26.4489 66.288 26.4489 66.68 26.4489 67.08C26.4569 67.48 26.4649 67.892 26.4729 68.316L27.5649 68.436V69H23.8689V68.436L24.8769 68.328C24.8929 67.832 24.9009 67.328 24.9009 66.816C24.9009 66.304 24.9009 65.792 24.9009 65.28V64.764C24.9009 64.26 24.9009 63.756 24.9009 63.252C24.9009 62.74 24.8929 62.228 24.8769 61.716L23.8689 61.608ZM31.4271 61.608V61.044H37.4751L37.5591 63.144H36.7191L36.4671 61.68H34.0311C34.0231 62.184 34.0151 62.688 34.0071 63.192C34.0071 63.688 34.0071 64.156 34.0071 64.596H35.5551L35.7111 63.552H36.3351V66.264H35.7111L35.5671 65.232H34.0071C34.0071 65.808 34.0071 66.352 34.0071 66.864C34.0151 67.368 34.0231 67.868 34.0311 68.364H36.7071L36.9591 66.9H37.7991L37.7151 69H31.4271V68.436L32.4351 68.328C32.4511 67.832 32.4591 67.328 32.4591 66.816C32.4591 66.304 32.4591 65.792 32.4591 65.28V64.764C32.4591 64.26 32.4591 63.756 32.4591 63.252C32.4591 62.74 32.4511 62.228 32.4351 61.716L31.4271 61.608ZM43.9627 61.608V61.044H46.9867V61.608L45.9667 61.764V69.048H45.2587L40.7347 62.832V68.268L42.0547 68.436V69H39.0307V68.436L40.0507 68.292V61.884L39.9067 61.692L39.0667 61.608V61.044H41.3347L45.2827 66.468V61.764L43.9627 61.608ZM50.6668 69.204C50.2188 69.204 49.7748 69.148 49.3348 69.036C48.8948 68.924 48.5188 68.768 48.2068 68.568L48.2788 66.84H49.2028L49.4428 68.292C49.6268 68.372 49.8148 68.436 50.0068 68.484C50.1988 68.524 50.4148 68.544 50.6548 68.544C51.1508 68.544 51.5388 68.428 51.8188 68.196C52.1068 67.956 52.2508 67.64 52.2508 67.248C52.2508 66.896 52.1508 66.62 51.9508 66.42C51.7508 66.22 51.4308 66.032 50.9908 65.856L50.4988 65.652C49.8428 65.372 49.3188 65.036 48.9268 64.644C48.5428 64.252 48.3508 63.74 48.3508 63.108C48.3508 62.636 48.4708 62.232 48.7108 61.896C48.9508 61.552 49.2828 61.292 49.7068 61.116C50.1388 60.932 50.6348 60.84 51.1948 60.84C51.6108 60.84 51.9988 60.896 52.3588 61.008C52.7188 61.12 53.0348 61.272 53.3068 61.464L53.2228 63.084H52.3108L52.0708 61.692C51.7908 61.564 51.4908 61.5 51.1708 61.5C50.7708 61.5 50.4308 61.608 50.1508 61.824C49.8708 62.032 49.7308 62.332 49.7308 62.724C49.7308 63.068 49.8388 63.348 50.0548 63.564C50.2708 63.78 50.5748 63.968 50.9668 64.128L51.4828 64.344C52.2668 64.672 52.8228 65.024 53.1508 65.4C53.4868 65.776 53.6548 66.26 53.6548 66.852C53.6548 67.556 53.3868 68.124 52.8508 68.556C52.3228 68.988 51.5948 69.204 50.6668 69.204ZM54.9569 61.608V61.044H58.5689V61.608L57.5609 61.716C57.5529 62.212 57.5449 62.716 57.5369 63.228C57.5369 63.732 57.5369 64.244 57.5369 64.764V65.28C57.5369 65.784 57.5369 66.292 57.5369 66.804C57.5449 67.308 57.5529 67.816 57.5609 68.328L58.5689 68.436V69H54.9569V68.436L55.9649 68.328C55.9809 67.832 55.9889 67.328 55.9889 66.816C55.9889 66.304 55.9889 65.792 55.9889 65.28V64.764C55.9889 64.26 55.9889 63.756 55.9889 63.252C55.9889 62.74 55.9809 62.228 55.9649 61.716L54.9569 61.608ZM64.8558 61.608V61.044H67.8798V61.608L66.8598 61.764V69.048H66.1518L61.6278 62.832V68.268L62.9478 68.436V69H59.9238V68.436L60.9438 68.292V61.884L60.7998 61.692L59.9598 61.608V61.044H62.2278L66.1758 66.468V61.764L64.8558 61.608ZM73.1228 69.204C72.3147 69.204 71.6027 69.032 70.9867 68.688C70.3707 68.336 69.8907 67.848 69.5467 67.224C69.2027 66.592 69.0307 65.856 69.0307 65.016C69.0307 64.192 69.1987 63.468 69.5347 62.844C69.8787 62.212 70.3627 61.72 70.9867 61.368C71.6187 61.016 72.3627 60.84 73.2187 60.84C73.6667 60.84 74.0867 60.888 74.4788 60.984C74.8708 61.072 75.2387 61.212 75.5827 61.404L75.6307 63.204H74.8027L74.5148 61.74C74.1547 61.564 73.7787 61.476 73.3867 61.476C72.8907 61.476 72.4387 61.608 72.0307 61.872C71.6307 62.136 71.3107 62.532 71.0707 63.06C70.8387 63.58 70.7227 64.232 70.7227 65.016C70.7227 66.176 70.9707 67.056 71.4667 67.656C71.9627 68.256 72.6107 68.556 73.4107 68.556C73.5787 68.556 73.7347 68.544 73.8787 68.52C74.0228 68.496 74.1628 68.464 74.2987 68.424V67.956C74.2987 67.604 74.2947 67.252 74.2868 66.9C74.2868 66.54 74.2828 66.184 74.2747 65.832L73.1107 65.712V65.148H76.4948V65.712L75.8228 65.784C75.8147 66.152 75.8067 66.516 75.7987 66.876C75.7987 67.236 75.7987 67.604 75.7987 67.98V68.496C75.3828 68.72 74.9627 68.892 74.5387 69.012C74.1147 69.14 73.6428 69.204 73.1228 69.204ZM85.6072 61.608V61.044H89.1832V61.608L88.1872 61.716C88.1792 62.212 88.1712 62.716 88.1632 63.228C88.1632 63.732 88.1632 64.244 88.1632 64.764V65.28C88.1632 65.784 88.1632 66.292 88.1632 66.804C88.1712 67.308 88.1792 67.816 88.1872 68.328L89.1832 68.436V69H85.6072V68.436L86.5792 68.328C86.5952 67.824 86.6032 67.312 86.6032 66.792C86.6032 66.272 86.6032 65.752 86.6032 65.232H83.3512C83.3512 65.808 83.3512 66.348 83.3512 66.852C83.3592 67.356 83.3672 67.848 83.3752 68.328L84.3592 68.436V69H80.7832V68.436L81.7792 68.328C81.7952 67.832 81.8032 67.328 81.8032 66.816C81.8032 66.304 81.8032 65.792 81.8032 65.28V64.764C81.8032 64.26 81.8032 63.756 81.8032 63.252C81.8032 62.74 81.7952 62.228 81.7792 61.716L80.7832 61.608V61.044H84.3592V61.608L83.3752 61.716C83.3672 62.212 83.3592 62.708 83.3512 63.204C83.3512 63.7 83.3512 64.168 83.3512 64.608H86.6032C86.6032 64.112 86.6032 63.624 86.6032 63.144C86.6032 62.664 86.5952 62.188 86.5792 61.716L85.6072 61.608ZM90.603 61.608V61.044H96.651L96.735 63.144H95.895L95.643 61.68H93.207C93.199 62.184 93.191 62.688 93.183 63.192C93.183 63.688 93.183 64.156 93.183 64.596H94.731L94.887 63.552H95.511V66.264H94.887L94.743 65.232H93.183C93.183 65.808 93.183 66.352 93.183 66.864C93.191 67.368 93.199 67.868 93.207 68.364H95.883L96.135 66.9H96.975L96.891 69H90.603V68.436L91.611 68.328C91.627 67.832 91.635 67.328 91.635 66.816C91.635 66.304 91.635 65.792 91.635 65.28V64.764C91.635 64.26 91.635 63.756 91.635 63.252C91.635 62.74 91.627 62.228 91.611 61.716L90.603 61.608ZM101.399 62.592L100.295 65.916H102.491L101.399 62.592ZM97.8826 69V68.436L98.8666 68.292L101.375 60.996H102.359L104.867 68.352L105.683 68.448V69H102.215V68.448L103.271 68.316L102.695 66.54H100.079L99.5026 68.28L100.547 68.436V69H97.8826ZM106.704 61.608V61.044H110.364V61.608L109.308 61.728C109.3 62.224 109.292 62.728 109.284 63.24C109.284 63.744 109.284 64.252 109.284 64.764V65.496C109.284 65.92 109.284 66.376 109.284 66.864C109.292 67.352 109.3 67.848 109.308 68.352H111.732L112.068 66.696H112.908L112.788 69H106.704V68.436L107.712 68.328C107.728 67.824 107.736 67.328 107.736 66.84C107.736 66.344 107.736 65.868 107.736 65.412V64.764C107.736 64.244 107.736 63.732 107.736 63.228C107.736 62.716 107.728 62.212 107.712 61.716L106.704 61.608ZM113.061 63.228L113.133 61.044H119.937L119.997 63.228H119.169L118.917 61.68H117.333C117.325 62.184 117.317 62.696 117.309 63.216C117.309 63.728 117.309 64.244 117.309 64.764V65.28C117.309 65.784 117.309 66.292 117.309 66.804C117.317 67.308 117.325 67.812 117.333 68.316L118.461 68.436V69H114.597V68.436L115.725 68.316C115.741 67.82 115.749 67.32 115.749 66.816C115.749 66.304 115.749 65.792 115.749 65.28V64.764C115.749 64.252 115.749 63.74 115.749 63.228C115.749 62.708 115.741 62.192 115.725 61.68H114.153L113.901 63.228H113.061ZM126.011 61.608V61.044H129.587V61.608L128.591 61.716C128.583 62.212 128.575 62.716 128.567 63.228C128.567 63.732 128.567 64.244 128.567 64.764V65.28C128.567 65.784 128.567 66.292 128.567 66.804C128.575 67.308 128.583 67.816 128.591 68.328L129.587 68.436V69H126.011V68.436L126.983 68.328C126.999 67.824 127.007 67.312 127.007 66.792C127.007 66.272 127.007 65.752 127.007 65.232H123.755C123.755 65.808 123.755 66.348 123.755 66.852C123.763 67.356 123.771 67.848 123.779 68.328L124.763 68.436V69H121.187V68.436L122.183 68.328C122.199 67.832 122.207 67.328 122.207 66.816C122.207 66.304 122.207 65.792 122.207 65.28V64.764C122.207 64.26 122.207 63.756 122.207 63.252C122.207 62.74 122.199 62.228 122.183 61.716L121.187 61.608V61.044H124.763V61.608L123.779 61.716C123.771 62.212 123.763 62.708 123.755 63.204C123.755 63.7 123.755 64.168 123.755 64.608H127.007C127.007 64.112 127.007 63.624 127.007 63.144C127.007 62.664 126.999 62.188 126.983 61.716L126.011 61.608ZM134.912 69.204C134.128 69.204 133.424 69.04 132.8 68.712C132.184 68.376 131.696 67.896 131.336 67.272C130.984 66.64 130.808 65.888 130.808 65.016C130.808 64.144 130.992 63.396 131.36 62.772C131.736 62.148 132.236 61.672 132.86 61.344C133.492 61.008 134.188 60.84 134.948 60.84C135.34 60.84 135.732 60.884 136.124 60.972C136.516 61.06 136.904 61.212 137.288 61.428L137.336 63.228H136.508L136.22 61.74C136.044 61.644 135.868 61.576 135.692 61.536C135.516 61.496 135.34 61.476 135.164 61.476C134.684 61.476 134.24 61.608 133.832 61.872C133.432 62.128 133.108 62.52 132.86 63.048C132.62 63.568 132.5 64.228 132.5 65.028C132.5 65.82 132.612 66.48 132.836 67.008C133.068 67.528 133.38 67.916 133.772 68.172C134.164 68.428 134.604 68.556 135.092 68.556C135.5 68.556 135.912 68.464 136.328 68.28L136.616 66.816H137.432L137.384 68.604C137.04 68.796 136.66 68.944 136.244 69.048C135.828 69.152 135.384 69.204 134.912 69.204ZM141.873 62.592L140.769 65.916H142.965L141.873 62.592ZM138.357 69V68.436L139.341 68.292L141.849 60.996H142.833L145.341 68.352L146.157 68.448V69H142.689V68.448L143.745 68.316L143.169 66.54H140.553L139.977 68.28L141.021 68.436V69H138.357ZM150.538 61.656H149.77C149.762 62.168 149.754 62.68 149.746 63.192C149.746 63.704 149.746 64.216 149.746 64.728H150.442C151.066 64.728 151.51 64.576 151.774 64.272C152.046 63.968 152.182 63.596 152.182 63.156C152.182 62.156 151.634 61.656 150.538 61.656ZM147.178 61.608V61.044H150.79C151.726 61.044 152.446 61.224 152.95 61.584C153.462 61.944 153.718 62.444 153.718 63.084C153.718 63.372 153.646 63.652 153.502 63.924C153.366 64.196 153.146 64.432 152.842 64.632C152.538 64.832 152.138 64.972 151.642 65.052C152.146 65.132 152.518 65.308 152.758 65.58C153.006 65.852 153.186 66.248 153.298 66.768L153.67 68.34L154.594 68.436V69C154.394 69.056 154.218 69.092 154.066 69.108C153.922 69.132 153.734 69.144 153.502 69.144C153.062 69.144 152.718 69.072 152.47 68.928C152.23 68.784 152.078 68.528 152.014 68.16L151.666 66.492C151.578 66.044 151.426 65.74 151.21 65.58C151.002 65.412 150.686 65.328 150.262 65.328H149.746C149.746 65.864 149.746 66.38 149.746 66.876C149.754 67.364 149.762 67.848 149.77 68.328L150.79 68.436V69H147.178V68.436L148.186 68.328C148.202 67.832 148.21 67.328 148.21 66.816C148.21 66.304 148.21 65.792 148.21 65.28V64.764C148.21 64.26 148.21 63.756 148.21 63.252C148.21 62.74 148.202 62.228 148.186 61.716L147.178 61.608ZM155.65 61.608V61.044H161.698L161.782 63.144H160.942L160.69 61.68H158.254C158.246 62.184 158.238 62.688 158.23 63.192C158.23 63.688 158.23 64.156 158.23 64.596H159.778L159.934 63.552H160.558V66.264H159.934L159.79 65.232H158.23C158.23 65.808 158.23 66.352 158.23 66.864C158.238 67.368 158.246 67.868 158.254 68.364H160.93L161.182 66.9H162.022L161.938 69H155.65V68.436L156.658 68.328C156.674 67.832 156.682 67.328 156.682 66.816C156.682 66.304 156.682 65.792 156.682 65.28V64.764C156.682 64.26 156.682 63.756 156.682 63.252C156.682 62.74 156.674 62.228 156.658 61.716L155.65 61.608ZM164.646 69.168C164.374 69.168 164.146 69.076 163.962 68.892C163.778 68.7 163.686 68.476 163.686 68.22C163.686 67.948 163.778 67.716 163.962 67.524C164.146 67.332 164.374 67.236 164.646 67.236C164.918 67.236 165.146 67.332 165.33 67.524C165.514 67.716 165.606 67.948 165.606 68.22C165.606 68.476 165.514 68.7 165.33 68.892C165.146 69.076 164.918 69.168 164.646 69.168Z" fill="black"/>
<path d="M3.468 76.608V76.044H9.516L9.6 78.144H8.76L8.508 76.68H6.072C6.064 77.184 6.056 77.688 6.048 78.192C6.048 78.688 6.048 79.156 6.048 79.596H7.596L7.752 78.552H8.376V81.264H7.752L7.608 80.232H6.048C6.048 80.808 6.048 81.352 6.048 81.864C6.056 82.368 6.064 82.868 6.072 83.364H8.748L9 81.9H9.84L9.756 84H3.468V83.436L4.476 83.328C4.492 82.832 4.5 82.328 4.5 81.816C4.5 81.304 4.5 80.792 4.5 80.28V79.764C4.5 79.26 4.5 78.756 4.5 78.252C4.5 77.74 4.492 77.228 4.476 76.716L3.468 76.608ZM11.0116 84V83.436L12.1276 83.28V76.74L11.0596 76.608V76.044H13.7356L16.0756 82.008L18.2836 76.044H20.9596V76.608L19.9756 76.716C19.9676 77.212 19.9596 77.716 19.9516 78.228C19.9516 78.732 19.9516 79.244 19.9516 79.764V80.28C19.9516 80.792 19.9516 81.304 19.9516 81.816C19.9596 82.32 19.9676 82.824 19.9756 83.328L20.9836 83.436V84H17.4436V83.436L18.3916 83.316C18.4076 82.82 18.4156 82.328 18.4156 81.84C18.4156 81.344 18.4156 80.868 18.4156 80.412L18.4276 77.556L16.0516 84H15.2836L12.7636 77.556L12.8236 79.908V83.28L13.8196 83.436V84H11.0116ZM25.5246 76.656H25.0086C25.0006 77.168 24.9926 77.684 24.9846 78.204C24.9846 78.724 24.9846 79.244 24.9846 79.764V80.292H25.5726C26.2046 80.292 26.6646 80.12 26.9526 79.776C27.2406 79.432 27.3846 78.98 27.3846 78.42C27.3846 77.852 27.2286 77.416 26.9166 77.112C26.6126 76.808 26.1486 76.656 25.5246 76.656ZM22.4046 76.608V76.044H25.6446C26.7726 76.044 27.5966 76.264 28.1166 76.704C28.6446 77.136 28.9086 77.708 28.9086 78.42C28.9086 78.868 28.7966 79.284 28.5726 79.668C28.3566 80.044 27.9966 80.344 27.4926 80.568C26.9966 80.792 26.3246 80.904 25.4766 80.904H24.9846C24.9846 81.288 24.9846 81.68 24.9846 82.08C24.9926 82.48 25.0006 82.892 25.0086 83.316L26.1006 83.436V84H22.4046V83.436L23.4126 83.328C23.4286 82.832 23.4366 82.328 23.4366 81.816C23.4366 81.304 23.4366 80.792 23.4366 80.28V79.764C23.4366 79.26 23.4366 78.756 23.4366 78.252C23.4366 77.74 23.4286 77.228 23.4126 76.716L22.4046 76.608ZM33.8948 84.204C33.4148 84.204 32.9508 84.116 32.5028 83.94C32.0548 83.764 31.6508 83.5 31.2908 83.148C30.9388 82.796 30.6588 82.36 30.4508 81.84C30.2508 81.32 30.1508 80.712 30.1508 80.016C30.1508 79.344 30.2548 78.748 30.4628 78.228C30.6708 77.708 30.9508 77.272 31.3028 76.92C31.6548 76.56 32.0548 76.292 32.5028 76.116C32.9508 75.932 33.4148 75.84 33.8948 75.84C34.3748 75.84 34.8348 75.928 35.2748 76.104C35.7228 76.28 36.1228 76.544 36.4748 76.896C36.8268 77.24 37.1068 77.676 37.3148 78.204C37.5228 78.724 37.6268 79.328 37.6268 80.016C37.6268 80.688 37.5228 81.284 37.3148 81.804C37.1148 82.324 36.8348 82.764 36.4748 83.124C36.1228 83.476 35.7228 83.744 35.2748 83.928C34.8348 84.112 34.3748 84.204 33.8948 84.204ZM33.8948 83.556C34.3748 83.556 34.7628 83.392 35.0588 83.064C35.3548 82.736 35.5708 82.304 35.7068 81.768C35.8508 81.232 35.9228 80.648 35.9228 80.016C35.9228 79.384 35.8508 78.8 35.7068 78.264C35.5708 77.728 35.3548 77.296 35.0588 76.968C34.7628 76.64 34.3748 76.476 33.8948 76.476C33.4148 76.476 33.0228 76.64 32.7188 76.968C32.4148 77.296 32.1908 77.728 32.0468 78.264C31.9108 78.8 31.8428 79.384 31.8428 80.016C31.8428 80.648 31.9108 81.232 32.0468 81.768C32.1908 82.304 32.4148 82.736 32.7188 83.064C33.0228 83.392 33.4148 83.556 33.8948 83.556ZM47.2116 76.608V76.044H49.8516V76.608L48.8796 76.764L46.8036 84.048H45.9756L44.0796 78.192L42.2676 84.048H41.4396L39.2796 76.704L38.4036 76.608V76.044H41.8956V76.608L40.8996 76.728L42.2556 81.924L43.8996 76.728L42.8556 76.608V76.044H46.2756V76.608L45.1476 76.74L46.7436 81.996L48.1956 76.752L47.2116 76.608ZM50.868 76.608V76.044H56.916L57 78.144H56.16L55.908 76.68H53.472C53.464 77.184 53.456 77.688 53.448 78.192C53.448 78.688 53.448 79.156 53.448 79.596H54.996L55.152 78.552H55.776V81.264H55.152L55.008 80.232H53.448C53.448 80.808 53.448 81.352 53.448 81.864C53.456 82.368 53.464 82.868 53.472 83.364H56.148L56.4 81.9H57.24L57.156 84H50.868V83.436L51.876 83.328C51.892 82.832 51.9 82.328 51.9 81.816C51.9 81.304 51.9 80.792 51.9 80.28V79.764C51.9 79.26 51.9 78.756 51.9 78.252C51.9 77.74 51.892 77.228 51.876 76.716L50.868 76.608ZM61.8916 76.656H61.1236C61.1156 77.168 61.1076 77.68 61.0996 78.192C61.0996 78.704 61.0996 79.216 61.0996 79.728H61.7956C62.4196 79.728 62.8636 79.576 63.1276 79.272C63.3996 78.968 63.5356 78.596 63.5356 78.156C63.5356 77.156 62.9876 76.656 61.8916 76.656ZM58.5316 76.608V76.044H62.1436C63.0796 76.044 63.7996 76.224 64.3036 76.584C64.8156 76.944 65.0716 77.444 65.0716 78.084C65.0716 78.372 64.9996 78.652 64.8556 78.924C64.7196 79.196 64.4996 79.432 64.1956 79.632C63.8916 79.832 63.4916 79.972 62.9956 80.052C63.4996 80.132 63.8716 80.308 64.1116 80.58C64.3596 80.852 64.5396 81.248 64.6516 81.768L65.0236 83.34L65.9476 83.436V84C65.7476 84.056 65.5716 84.092 65.4196 84.108C65.2756 84.132 65.0876 84.144 64.8556 84.144C64.4156 84.144 64.0716 84.072 63.8236 83.928C63.5836 83.784 63.4316 83.528 63.3676 83.16L63.0196 81.492C62.9316 81.044 62.7796 80.74 62.5636 80.58C62.3556 80.412 62.0396 80.328 61.6156 80.328H61.0996C61.0996 80.864 61.0996 81.38 61.0996 81.876C61.1076 82.364 61.1156 82.848 61.1236 83.328L62.1436 83.436V84H58.5316V83.436L59.5396 83.328C59.5556 82.832 59.5636 82.328 59.5636 81.816C59.5636 81.304 59.5636 80.792 59.5636 80.28V79.764C59.5636 79.26 59.5636 78.756 59.5636 78.252C59.5636 77.74 59.5556 77.228 59.5396 76.716L58.5316 76.608ZM67.0038 76.608V76.044H70.6158V76.608L69.6078 76.716C69.5998 77.212 69.5918 77.716 69.5838 78.228C69.5838 78.732 69.5838 79.244 69.5838 79.764V80.28C69.5838 80.784 69.5838 81.292 69.5838 81.804C69.5918 82.308 69.5998 82.816 69.6078 83.328L70.6158 83.436V84H67.0038V83.436L68.0118 83.328C68.0278 82.832 68.0358 82.328 68.0358 81.816C68.0358 81.304 68.0358 80.792 68.0358 80.28V79.764C68.0358 79.26 68.0358 78.756 68.0358 78.252C68.0358 77.74 68.0278 77.228 68.0118 76.716L67.0038 76.608ZM76.9027 76.608V76.044H79.9267V76.608L78.9067 76.764V84.048H78.1987L73.6747 77.832V83.268L74.9947 83.436V84H71.9707V83.436L72.9907 83.292V76.884L72.8467 76.692L72.0067 76.608V76.044H74.2747L78.2227 81.468V76.764L76.9027 76.608ZM85.1696 84.204C84.3616 84.204 83.6496 84.032 83.0336 83.688C82.4176 83.336 81.9376 82.848 81.5936 82.224C81.2496 81.592 81.0776 80.856 81.0776 80.016C81.0776 79.192 81.2456 78.468 81.5816 77.844C81.9256 77.212 82.4096 76.72 83.0336 76.368C83.6656 76.016 84.4096 75.84 85.2656 75.84C85.7136 75.84 86.1336 75.888 86.5256 75.984C86.9176 76.072 87.2856 76.212 87.6296 76.404L87.6776 78.204H86.8496L86.5616 76.74C86.2016 76.564 85.8256 76.476 85.4336 76.476C84.9376 76.476 84.4856 76.608 84.0776 76.872C83.6776 77.136 83.3576 77.532 83.1176 78.06C82.8856 78.58 82.7696 79.232 82.7696 80.016C82.7696 81.176 83.0176 82.056 83.5136 82.656C84.0096 83.256 84.6576 83.556 85.4576 83.556C85.6256 83.556 85.7816 83.544 85.9256 83.52C86.0696 83.496 86.2096 83.464 86.3456 83.424V82.956C86.3456 82.604 86.3416 82.252 86.3336 81.9C86.3336 81.54 86.3296 81.184 86.3216 80.832L85.1576 80.712V80.148H88.5416V80.712L87.8696 80.784C87.8616 81.152 87.8536 81.516 87.8456 81.876C87.8456 82.236 87.8456 82.604 87.8456 82.98V83.496C87.4296 83.72 87.0096 83.892 86.5856 84.012C86.1616 84.14 85.6896 84.204 85.1696 84.204ZM92.83 76.608V76.044H96.49V76.608L95.434 76.728C95.426 77.224 95.418 77.728 95.41 78.24C95.41 78.744 95.41 79.252 95.41 79.764V80.496C95.41 80.92 95.41 81.376 95.41 81.864C95.418 82.352 95.426 82.848 95.434 83.352H97.858L98.194 81.696H99.034L98.914 84H92.83V83.436L93.838 83.328C93.854 82.824 93.862 82.328 93.862 81.84C93.862 81.344 93.862 80.868 93.862 80.412V79.764C93.862 79.244 93.862 78.732 93.862 78.228C93.862 77.716 93.854 77.212 93.838 76.716L92.83 76.608ZM100.224 76.608V76.044H103.836V76.608L102.828 76.716C102.82 77.212 102.812 77.716 102.804 78.228C102.804 78.732 102.804 79.244 102.804 79.764V80.28C102.804 80.784 102.804 81.292 102.804 81.804C102.812 82.308 102.82 82.816 102.828 83.328L103.836 83.436V84H100.224V83.436L101.232 83.328C101.248 82.832 101.256 82.328 101.256 81.816C101.256 81.304 101.256 80.792 101.256 80.28V79.764C101.256 79.26 101.256 78.756 101.256 78.252C101.256 77.74 101.248 77.228 101.232 76.716L100.224 76.608ZM104.915 76.608V76.044H108.479V76.62L107.399 76.74L109.223 82.104L111.047 76.752L110.039 76.62V76.044H112.727V76.608L111.755 76.752L109.247 84.048H108.419L105.731 76.692L104.915 76.608ZM113.747 76.608V76.044H119.795L119.879 78.144H119.039L118.787 76.68H116.351C116.343 77.184 116.335 77.688 116.327 78.192C116.327 78.688 116.327 79.156 116.327 79.596H117.875L118.031 78.552H118.655V81.264H118.031L117.887 80.232H116.327C116.327 80.808 116.327 81.352 116.327 81.864C116.335 82.368 116.343 82.868 116.351 83.364H119.027L119.279 81.9H120.119L120.035 84H113.747V83.436L114.755 83.328C114.771 82.832 114.779 82.328 114.779 81.816C114.779 81.304 114.779 80.792 114.779 80.28V79.764C114.779 79.26 114.779 78.756 114.779 78.252C114.779 77.74 114.771 77.228 114.755 76.716L113.747 76.608ZM123.846 84.204C123.398 84.204 122.954 84.148 122.514 84.036C122.074 83.924 121.698 83.768 121.386 83.568L121.458 81.84H122.382L122.622 83.292C122.806 83.372 122.994 83.436 123.186 83.484C123.378 83.524 123.594 83.544 123.834 83.544C124.33 83.544 124.718 83.428 124.998 83.196C125.286 82.956 125.43 82.64 125.43 82.248C125.43 81.896 125.33 81.62 125.13 81.42C124.93 81.22 124.61 81.032 124.17 80.856L123.678 80.652C123.022 80.372 122.498 80.036 122.106 79.644C121.722 79.252 121.53 78.74 121.53 78.108C121.53 77.636 121.65 77.232 121.89 76.896C122.13 76.552 122.462 76.292 122.886 76.116C123.318 75.932 123.814 75.84 124.374 75.84C124.79 75.84 125.178 75.896 125.538 76.008C125.898 76.12 126.214 76.272 126.486 76.464L126.402 78.084H125.49L125.25 76.692C124.97 76.564 124.67 76.5 124.35 76.5C123.95 76.5 123.61 76.608 123.33 76.824C123.05 77.032 122.91 77.332 122.91 77.724C122.91 78.068 123.018 78.348 123.234 78.564C123.45 78.78 123.754 78.968 124.146 79.128L124.662 79.344C125.446 79.672 126.002 80.024 126.33 80.4C126.666 80.776 126.834 81.26 126.834 81.852C126.834 82.556 126.566 83.124 126.03 83.556C125.502 83.988 124.774 84.204 123.846 84.204ZM129.351 84.168C129.079 84.168 128.851 84.076 128.667 83.892C128.483 83.7 128.391 83.476 128.391 83.22C128.391 82.948 128.483 82.716 128.667 82.524C128.851 82.332 129.079 82.236 129.351 82.236C129.623 82.236 129.851 82.332 130.035 82.524C130.219 82.716 130.311 82.948 130.311 83.22C130.311 83.476 130.219 83.7 130.035 83.892C129.851 84.076 129.623 84.168 129.351 84.168Z" fill="black"/>
</svg>
