<svg id="Layer_1" data-name="Layer 1" xmlns="http://www.w3.org/2000/svg" viewBox="0 0 160 102"><defs><style>.cls-1{fill:#606265;}.cls-2{fill:#005a86;}</style></defs><path class="cls-1" d="M110.1,29.56V72.47h-7.42V53H83.54V72.47H76.1V29.56h7.44v17h19.14v-17ZM68.3,72.47H60.86V29.56H68.3Zm-14.53,0H46L26.85,40.94h-.36V72.47H19.32V29.56h7.8l19.5,31.53h0V29.56h7.15ZM136,50.81,109.77,3H13.38a8.76,8.76,0,0,0-8.86,8.69V90.16A8.77,8.77,0,0,0,13.2,99h96.57Z"/><path class="cls-2" d="M116.49,99l26.24-47.85L116.49,3h6.4a12,12,0,0,1,9.56,5.73l23,42.18L132.45,93a12,12,0,0,1-9.56,5.74h-6.4Z"/></svg>