<svg width="12" height="10" viewBox="0 0 12 10" fill="none" xmlns="http://www.w3.org/2000/svg">
<path fill-rule="evenodd" clip-rule="evenodd" d="M6.65559 1.4448C7.13297 0.967413 7.78045 0.699219 8.45559 0.699219C9.13072 0.699219 9.7782 0.967413 10.2556 1.4448C10.733 1.92219 11.0012 2.56967 11.0012 3.2448C11.0012 3.91993 10.733 4.56741 10.2556 5.0448L9.60059 5.6998L6.00059 9.2998L2.40058 5.6998L1.74558 5.0448C1.26819 4.56741 1 3.91993 1 3.2448C1 2.56967 1.26819 1.92219 1.74558 1.4448C2.22297 0.967413 2.87045 0.699219 3.54558 0.699219C4.22072 0.699219 4.86819 0.967413 5.34558 1.4448L6.00059 2.0998L6.65559 1.4448Z" stroke="#636363" stroke-linecap="round" stroke-linejoin="bevel"/>
</svg>
