<svg width="18" height="18" viewBox="0 0 18 18" fill="none" xmlns="http://www.w3.org/2000/svg">
<path fill-rule="evenodd" clip-rule="evenodd" d="M2.4375 2.125C2.35462 2.125 2.27514 2.15793 2.21653 2.21653C2.15793 2.27514 2.125 2.35462 2.125 2.4375V11.8125C2.125 11.985 2.265 12.125 2.4375 12.125H4.9375C5.18614 12.125 5.4246 12.2238 5.60041 12.3996C5.77623 12.5754 5.875 12.8139 5.875 13.0625V15.8L9.275 12.4C9.45065 12.2241 9.68894 12.1252 9.9375 12.125H15.5625C15.6454 12.125 15.7249 12.0921 15.7835 12.0335C15.8421 11.9749 15.875 11.8954 15.875 11.8125V2.4375C15.875 2.35462 15.8421 2.27514 15.7835 2.21653C15.7249 2.15793 15.6454 2.125 15.5625 2.125H2.4375ZM0.25 2.4375C0.25 1.23 1.23 0.25 2.4375 0.25H15.5625C16.77 0.25 17.75 1.23 17.75 2.4375V11.8125C17.75 12.3926 17.5195 12.949 17.1092 13.3593C16.699 13.7695 16.1426 14 15.5625 14H10.325L7.10875 17.2162C6.85405 17.4709 6.52959 17.6441 6.17639 17.7144C5.82317 17.7846 5.45709 17.7485 5.12437 17.6108C4.79166 17.473 4.50726 17.2396 4.30714 16.9403C4.10701 16.6409 4.00012 16.2889 4 15.9288V14H2.4375C1.85734 14 1.30094 13.7695 0.8907 13.3593C0.480463 12.949 0.25 12.3926 0.25 11.8125V2.4375Z" fill="#24292E"/>
</svg>
