<svg width="34" height="34" viewBox="0 0 34 34" fill="none" xmlns="http://www.w3.org/2000/svg">
<circle cx="17.0007" cy="17.0007" r="14.1667" fill="#1DA1F2"/>
<path fill-rule="evenodd" clip-rule="evenodd" d="M25.5 11.5513C24.875 11.829 24.2024 12.0159 23.497 12.1004C24.2172 11.6686 24.7702 10.9852 25.0303 10.171C24.3571 10.571 23.6097 10.8606 22.8159 11.0175C22.1796 10.3399 21.2724 9.91602 20.27 9.91602C18.344 9.91602 16.7824 11.4776 16.7824 13.4036C16.7824 13.6767 16.8136 13.943 16.8731 14.1986C13.9742 14.0535 11.4045 12.6647 9.68425 10.5546C9.38394 11.0697 9.21225 11.6686 9.21225 12.3078C9.21225 13.5175 9.82704 14.585 10.7637 15.2106C10.1914 15.1925 9.65422 15.0355 9.18335 14.7743V14.8179C9.18335 16.5082 10.3863 17.9174 11.9808 18.2387C11.6884 18.318 11.3802 18.3611 11.0623 18.3611C10.8373 18.3611 10.6186 18.339 10.4056 18.2982C10.8492 19.6836 12.1378 20.6922 13.6637 20.7205C12.4704 21.6554 10.9665 22.2136 9.33238 22.2136C9.0502 22.2136 8.77255 22.1971 8.5 22.1643C10.0435 23.1536 11.8765 23.7316 13.8461 23.7316C20.2609 23.7316 23.7689 18.4171 23.7689 13.8088C23.7689 13.6575 23.7661 13.5067 23.7588 13.3577C24.441 12.8648 25.0325 12.2505 25.5 11.5513Z" fill="white"/>
</svg>
