<svg id="Layer_1" data-name="Layer 1" xmlns="http://www.w3.org/2000/svg" viewBox="0 0 152 120"><defs><style>.cls-1{fill:#1d1d1b;}</style></defs><path class="cls-1" d="M70.65,68.53a5.73,5.73,0,1,0,5.72-5.72h0A5.72,5.72,0,0,0,70.65,68.53Z"/><polygon class="cls-1" points="75.28 50.73 26.04 14.96 34.25 32.07 72.34 59.74 75.28 50.73"/><polygon class="cls-1" points="71.58 62.01 36.34 36.41 44.58 53.53 56.26 62.02 71.58 62.01"/><polygon class="cls-1" points="62.91 66.86 53.29 73.83 65 82.35 68.66 71.06 62.91 66.86"/><polygon class="cls-1" points="85.96 83.6 76.35 90.59 66.74 83.59 76.36 76.62 85.94 83.6 85.96 83.6"/><polygon class="cls-1" points="77.42 50.72 80.34 59.74 118.43 32.09 126.65 14.96 77.42 50.72"/><polygon class="cls-1" points="96.43 62.02 96.43 62.02 96.43 62.02 96.43 62.02 108.12 53.55 116.36 36.41 81.1 62.02 96.43 62.02"/><polygon class="cls-1" points="83.98 71.09 87.71 82.34 99.4 73.83 89.82 66.87 83.98 71.09"/><polygon class="cls-1" points="119.68 0.9 107.64 25.94 125.49 12.98 119.68 0.9"/><polygon class="cls-1" points="27.22 12.98 45.05 25.94 33.02 0.9 27.22 12.98"/><path class="cls-1" d="M73.54,115.37a4.87,4.87,0,0,0-.58-.71,4.17,4.17,0,0,0-.67-.59l0,0a2.75,2.75,0,0,0,.36-.15,3.59,3.59,0,0,0,1.32-1.13,3.13,3.13,0,0,0-.16-3.6,3.25,3.25,0,0,0-1.67-1.07,11.23,11.23,0,0,0-2.77-.27H62.68v11.08H67.2v-4.19a1.48,1.48,0,0,1,.71.19,2.12,2.12,0,0,1,.55.68l2.12,3.32h5.11l-2.15-3.54Zm-3.28-4a.89.89,0,0,1-.08.31.78.78,0,0,1-.16.24,1,1,0,0,1-.6.34,6.74,6.74,0,0,1-1,.14H66.85V110.3h1.64a2.54,2.54,0,0,1,1.4.27h0a.67.67,0,0,1,.15.14l0,0a.92.92,0,0,1,.17.36v0a.91.91,0,0,1,0,.23h0v0Z"/><polygon class="cls-1" points="33.36 115.87 33.36 118.91 37.09 118.91 37.09 115.87 36.94 115.87 33.36 115.87"/><polygon class="cls-1" points="15.1 115.88 15.1 118.91 18.82 118.91 18.82 115.88 18.67 115.88 15.1 115.88"/><path class="cls-1" d="M13.76,107.85H9.42v6.65a1.24,1.24,0,0,1-.46,1,2.17,2.17,0,0,1-1.39.39,2.2,2.2,0,0,1-1.41-.4,1.26,1.26,0,0,1-.46-1v-6.65H1v6.53a5.43,5.43,0,0,0,.39,1.87,3.5,3.5,0,0,0,1,1.33,4.84,4.84,0,0,0,1.48,1,6.62,6.62,0,0,0,2,.43,19.86,19.86,0,0,0,2.1.11,10.05,10.05,0,0,0,2.89-.36,5,5,0,0,0,1.74-.92,4,4,0,0,0,1.22-1.56,4.64,4.64,0,0,0,.39-1.87v-6.52Z"/><path class="cls-1" d="M29.91,112.05a14,14,0,0,0-1.91-.56l4-.19-.06-.4a3.5,3.5,0,0,0-1.76-2.65,8.4,8.4,0,0,0-4-.79,10.65,10.65,0,0,0-3.37.43,4.23,4.23,0,0,0-1.93,1.25A2.7,2.7,0,0,0,21,113a2.34,2.34,0,0,0,.41.29,10.14,10.14,0,0,0,4,1.35,5.51,5.51,0,0,1,1.94.55c.29.22.29.39.29.44s0,.24-.32.47a2,2,0,0,1-1.15.26,2,2,0,0,1-1.56-.54,1.73,1.73,0,0,1-.41-1l-.06-.32-4.57.23,0,.38A4.18,4.18,0,0,0,21.21,118c.94.75,2.54,1.11,4.89,1.11a10,10,0,0,0,3.31-.46,4.62,4.62,0,0,0,2.12-1.41,3.19,3.19,0,0,0,.79-2.1,2.92,2.92,0,0,0-.6-1.78A4.25,4.25,0,0,0,29.91,112.05Zm-3.91-1a4.28,4.28,0,0,1-1.23-.32c-.13-.09-.16-.15-.16-.16h0s0-.16.21-.29a1.65,1.65,0,0,1,.87-.18,2,2,0,0,1,1.17.27,1.23,1.23,0,0,1,.5.82l0,.13Z"/><polygon class="cls-1" points="55.83 107.84 55.83 118.91 60.11 118.91 60.11 107.84 59.75 107.84 55.83 107.84"/><path class="cls-1" d="M80.77,107.85v11.06H85.5v-4.23h5v-2.81h-5v-1.05h5.89v-3Z"/><path class="cls-1" d="M133,114.22a2.6,2.6,0,0,1-.76,1.31,2.42,2.42,0,0,1-1.54.42,2.28,2.28,0,0,1-1.64-.54,2.88,2.88,0,0,1-.56-2.08,2.69,2.69,0,0,1,.48-1.8,2.28,2.28,0,0,1,1.87-.75,2.77,2.77,0,0,1,1,.17,2,2,0,0,1,.71.48,2.08,2.08,0,0,1,.33.58l.11.27,4.35-.75-.18-.42a5.24,5.24,0,0,0-2.29-2.6,8.7,8.7,0,0,0-4.12-.83,8.28,8.28,0,0,0-5.19,1.44,5.12,5.12,0,0,0-1.89,4.23,5.19,5.19,0,0,0,1.08,3.39,5.78,5.78,0,0,0,2.52,1.84,11.33,11.33,0,0,0,3.66.51,9.55,9.55,0,0,0,3-.4A5.44,5.44,0,0,0,136,117.4a5.1,5.1,0,0,0,1.23-2.12l.12-.37-4.3-1Z"/><path class="cls-1" d="M144.1,115.84v-1.3h6.21v-2.82H144.1v-.94h6.71v-2.93H139.36v11.06H151v-3.07Z"/><path class="cls-1" d="M50.17,107.84H45.42l-5.1,11.07h4.83l.61-1.69h4l.63,1.69h4.91Zm-3.81,6.78,1.4-3.74,1.41,3.73Z"/><path class="cls-1" d="M120.67,115.38a5,5,0,0,0-.58-.71,3.53,3.53,0,0,0-.68-.6l0,0a2.67,2.67,0,0,0,.36-.14,3.59,3.59,0,0,0,1.32-1.13,3.16,3.16,0,0,0-.15-3.61,3.26,3.26,0,0,0-1.68-1.06,10.65,10.65,0,0,0-2.76-.27h-6.65v11.08h4.51v-4.19a1.35,1.35,0,0,1,.71.19,2.07,2.07,0,0,1,.56.68l2.12,3.32h5.1l-2.14-3.55Zm-3.52-3.45a1,1,0,0,1-.6.34,6.69,6.69,0,0,1-1,.14H114V110.3h1.65a2.57,2.57,0,0,1,1.4.27.86.86,0,0,1,.19.19h0a.88.88,0,0,1,.17.41v.17a.9.9,0,0,1-.22.59Z"/><path class="cls-1" d="M105.27,109.14a8.26,8.26,0,0,0-5.21-1.46,8.06,8.06,0,0,0-5.14,1.49A5.17,5.17,0,0,0,93,113.4a5.25,5.25,0,0,0,1,3.23,5.49,5.49,0,0,0,2.49,1.89,10.4,10.4,0,0,0,3.75.58,9.08,9.08,0,0,0,3.75-.68,5.3,5.3,0,0,0,2.36-1.93,5.65,5.65,0,0,0,.82-3.18A5,5,0,0,0,105.27,109.14Zm-3.18,6.54a3.21,3.21,0,0,1-4,0h0a1.54,1.54,0,0,1-.17-.19l0-.06-.11-.17,0-.07a1.63,1.63,0,0,1-.11-.23s0,0,0-.06a2.81,2.81,0,0,1-.1-.31v0c0-.07,0-.14,0-.21v-.07a1.38,1.38,0,0,0,0-.2c0-.08,0-.1,0-.14a.86.86,0,0,1,0-.16v-.38a3,3,0,0,1,.73-2.24,2.74,2.74,0,0,1,1.93-.68,2.78,2.78,0,0,1,2,.68h0a1.19,1.19,0,0,1,.19.2l.07.09.09.14.07.13a1.42,1.42,0,0,1,.08.18.5.5,0,0,1,.05.13,1.58,1.58,0,0,1,.09.31.89.89,0,0,0,0,.14c0,.05,0,.17,0,.25s0,.1,0,.14,0,.28,0,.42h0a3.4,3.4,0,0,1-.76,2.38Z"/></svg>