<svg id="Layer_1" data-name="Layer 1" xmlns="http://www.w3.org/2000/svg" viewBox="0 0 106 124"><defs><style>.cls-1{fill:#ffcb05;}.cls-2{fill:#fff;}</style></defs><path d="M12.71.52A5.5,5.5,0,0,0,7.22,6V83a5.51,5.51,0,0,0,5.49,5.52h80.8A5.51,5.51,0,0,0,99,83V6A5.5,5.5,0,0,0,93.51.52Zm-.05,90.87C9.53,91.39,7,94.47,7,98.26V116.6c0,3.8,2.53,6.88,5.66,6.88H93.33c3.13,0,5.66-3.08,5.66-6.88V98.26c0-3.79-2.53-6.87-5.66-6.87Z"/><path class="cls-1" d="M92.07,2.65H13.94A4.82,4.82,0,0,0,9.12,7.47V81a4.82,4.82,0,0,0,4.82,4.83H92.07A4.82,4.82,0,0,0,96.89,81V7.47a4.82,4.82,0,0,0-4.82-4.82"/><path d="M89.23,5.64H16.69a4.82,4.82,0,0,0-4.82,4.82v67.8a4.82,4.82,0,0,0,4.82,4.83H89.23a4.82,4.82,0,0,0,4.82-4.83V10.46a4.82,4.82,0,0,0-4.82-4.82"/><path class="cls-1" d="M53.2,9.8,45.26,35.22l-27.15.14,22,15.16L32,75.94,53.06,60.78l21.81,15.3L66.63,50.52,87.72,35.36H61.43L53.2,9.8ZM14,93.68A4.82,4.82,0,0,0,9.21,98.5v17.72A4.81,4.81,0,0,0,14,121H92.28a4.81,4.81,0,0,0,4.81-4.81V98.5a4.81,4.81,0,0,0-4.81-4.82Z"/><path d="M53.06,18.61,47.71,38.39l-19.35-.14,15.31,11L37.74,68.14l15-11.55,16.75,12L62.59,49.94,78.47,38.39H58.54L53.06,18.61ZM14.42,96a2.9,2.9,0,0,0-2.9,2.89V116a2.89,2.89,0,0,0,2.9,2.88H91.56A2.88,2.88,0,0,0,94.45,116V98.92A2.89,2.89,0,0,0,91.56,96Z"/><path class="cls-2" d="M53.11,25.6l-4,14.79-14.46-.11,11.44,8.2L41.67,62.62,52.89,54l12.52,9L60.23,49l11.88-8.63H57.21Zm-3.79,74.85-1.94,14.47h3.26l.18-2.63h1.8l.26,2.63h3.21L54,100.45Zm-25.69,0V112.2H22.36V100.5l-3.3,0v12.48l2.11,2h3.74l2-2.12v-12.4Zm54.22,0,2.65,8.33.07,6.13h3.26v-6.13l2.7-8.33H83.37l-1.17,5-1.15-5ZM57,100.5l0,14.51,3.17,0v-5.81H61.6l0,5.81,3,0v-5.85l-1.5-1.41,1.5-1.36v-3.87l-2.11-2Zm-21.2,0-2,2V107L35.94,109h2.43v3.11H37.05v-1.84H33.79v2.59L35.86,115h3.61l2.11-2.12v-4.44l-2.16-2.15H37.1v-3h1.18l0,1.88h3.12v-2.59l-2.2-2Zm37.08,0-1.15,7-1.19-6.91H66.78l0,14.43h3v-9.2l1.4,9.2h1.28l1.41-9.2V115h3l-.09-14.47ZM43.25,112.2l0,2.72h3.17V112.2Zm-14.47,0,0,2.73H32v-2.73Z"/><path d="M60.23,103.27v3.16l1.36,0v-3.12Zm-8.58.3-.57,6H52.4l-.75-6Z"/></svg>