<svg id="Layer_1" data-name="Layer 1" xmlns="http://www.w3.org/2000/svg" viewBox="0 0 150 108"><defs><style>.cls-1{fill:#004785;}.cls-2{fill:#005941;}</style></defs><path id="path3724" class="cls-1" d="M34.83,7.8l-.18,25.36c0,10.55-6.26,14.63-14.67,14.63-7.25,0-16.49-3.22-16.49-14.2V7.8A3.16,3.16,0,0,0,1.49,5H13.38A3.07,3.07,0,0,0,11.46,7.8v26c0,4.34,1.49,10.48,9.55,10.48,7.38,0,10-4.84,10-11L30.93,7.8A3,3,0,0,0,29.26,5h7.18A3,3,0,0,0,34.83,7.8Z"/><path id="path3726" class="cls-1" d="M51.63,47.79a26.44,26.44,0,0,1-11.91-3l-.3-10.48c1.18,4.4,4.9,10.23,11.34,10.23,6.14,0,8-4.4,8-7.44,0-6-5.38-6.76-11-9.8s-8.18-6.51-8.18-11.22c0-8.37,7.84-11.75,13.48-11.75a19.84,19.84,0,0,1,9.36,2.29l.31,9.18c-.88-3.29-4.4-8.25-10.35-8.25-4.71,0-6.57,3.29-6.57,6,0,3.78,2.66,5.21,8.48,7.87s11.78,4.73,11.78,13.35C66.07,42.51,59.25,47.79,51.63,47.79Z"/><path id="path3728" class="cls-1" d="M86.1,47.17H70.17a3.12,3.12,0,0,0,1.61-2.79V7.8A3,3,0,0,0,70.17,5H86.65c20.41,0,24.49,14.45,24.49,20.46C111.14,36.26,102.83,47.17,86.1,47.17ZM85.36,8.11c-1.49,0-4.77,0-5.7.12V44h5c14,0,17.92-9.42,17.92-18.48C102.53,18,98.18,8.11,85.36,8.11Z"/><path id="path3730" class="cls-1" d="M135.24,47.17c1.61-.87,1.92-1.75,1.5-3-.2-.62-1.81-4.41-3.53-8.62H118a87.06,87.06,0,0,0-3.47,8.56c-.56,1.49-.25,2.36,1.43,3.1h-8.56a7.44,7.44,0,0,0,2.91-3c1.21-2.43,17.52-40.5,17.52-40.5s16.48,38.07,17.6,40.42a5.5,5.5,0,0,0,3.1,3Zm-9.8-30.07s-4.22,10.54-6.2,15.18h12.53c-2.91-6.88-6.32-15.18-6.32-15.18Z"/><path id="path3732" class="cls-2" d="M146.65,53.13S56.42,50.88,3,79.36c0,0,56.63-22.4,143.66-20.16Z"/><path id="path3734" class="cls-2" d="M3,53.13s30.38.31,49.27,7.36c0,0-38.71-3.21-49.27-1.6Z"/><path id="path3736" class="cls-2" d="M3,63.05s21.76-1,34.87.32c0,0-31.67,3.84-34.87,5.44Z"/><path id="path3738" class="cls-2" d="M131.71,64h-.47C105,64.54,50,67.71,3,84.29v20H146.63V64S141.1,63.86,131.71,64Z"/></svg>